<svg fill="none" xmlns="http://www.w3.org/2000/svg" viewBox="0 0 20 21">
  <path d="M5.695 8.525a.225.225 0 0 0 .193-.109c.024.025.054.049.09.049.043 0 .188-.097.254-.151l.163.12.018-.036c.012-.042.079-.187.115-.247a.842.842 0 0 1 .09-.133l.11.12.017-.054.025-.072c.012-.03.024-.073.036-.103 0-.018.012-.03.018-.036.012-.024.048-.06.085-.097a.44.44 0 0 1 .066-.054l.018-.012v-.012s.127-.048.163-.09c.012-.019.067-.091.067-.146h.012l.012-.012c.042-.048.114-.133.15-.15h.013c.054-.025.169-.061.199-.073l.054-.018-.12-.109s.084-.066.132-.09c0 0 .013 0 .019-.013.012 0 .03-.018.048-.024.048-.024.103-.048.139-.066.012 0 .024-.012.03-.012h.012l.036-.018-.12-.163c.048-.055.15-.206.15-.254 0-.036-.024-.066-.048-.085.067-.048.103-.102.109-.175.012-.145-.109-.284-.145-.326.06-.09-.115-.26-.175-.314.024-.024.036-.048.048-.06.03-.042.036-.073.018-.103-.018-.036-.06-.042-.096-.048H7.68c0-.036 0-.097-.012-.151v-.024c-.018-.103-.102-.103-.126-.103h-.019s-.06.03-.102.085l-.048-.079-.182.018.018.212h-.169l.018.187-.126.024v.193l-.109.036v.03s.018.08.042.14c.018.036.055.048.115.048.03 0 .066 0 .103-.012v.036c0 .024 0 .048.03.078s.054.037.078.037c.018 0 .037 0 .055-.018 0 .012 0 .018.012.03.036.072.127.139.145.157a.367.367 0 0 0 .042.193c-.024.024-.054.054-.06.09l-.32-.096.054.078c.03.043.103.157.103.236 0 .054 0 .109-.013.145l-.114-.09-.043.036s.091.157.085.271v.036c0 .079-.012.164-.018.212-.048 0-.139.012-.175.042-.049.036-.06.133-.06.181h-.049c-.054 0-.115 0-.175.012-.115 0-.26-.084-.266-.084v.018l.09.127c-.03 0-.078.018-.126.018h-.012c-.09 0-.23-.103-.236-.103l-.072-.054.097.32a.234.234 0 0 0-.085.06.45.45 0 0 0-.163-.042h-.03s-.103-.139-.187-.157a.097.097 0 0 0 .018-.054c0-.018 0-.049-.037-.073a.113.113 0 0 0-.084-.03h-.042c0-.018 0-.036.012-.054 0-.055 0-.103-.018-.14-.018-.023-.055-.03-.079-.042H5.43l-.072-.018c-.012 0-.025 0-.025.018l-.012.03-.018.067h-.169s-.024 0-.03.024l-.018.109c-.048 0-.103-.012-.151-.018 0 0-.024.012-.024.024v.145h-.024c-.055 0-.115-.012-.17-.018h-.018v.012c0 .042 0 .09-.012.133 0 0 0 .018.012.024l.073.042-.054.048c-.013.013-.03.03-.037.049v.06c.012.067.067.085.127.09.042 0 .085.013.139.013 0 .03 0 .072.03.102.012.013.03.025.048.025.025 0 .043 0 .073-.025.012-.012.036-.024.06-.048l.024.024c.055.055.097.09.133.115a.288.288 0 0 0 .109.048h.012s.03 0 .042-.012c.043.037.17.145.302.145l-.072-.018-.012.006Zm2.3-2.349c0 .054-.03.097-.084.133-.012 0-.018.012-.03.018h-.127c-.085 0-.133 0-.157.024-.024.024-.079.043-.103.055-.03-.073-.042-.14-.018-.151.06-.037.32-.266.405-.345.042.049.127.163.12.266h-.006Zm-.483-.235c.025.03.037.054.049.078 0 .012.012.024.018.03 0 0-.042.043-.067.06-.012-.03-.03-.054-.042-.078V6.02a.8.8 0 0 0-.072-.096l.066-.067.054.073v.012h-.006Zm-.018-.115.115-.12s.042.053.06.084c.019.024.037.054.055.084 0 .012.012.024.018.03v.012a2.178 2.178 0 0 1-.12.11v-.013a.385.385 0 0 0-.05-.084c-.023-.037-.041-.067-.072-.103h-.006Zm.369-.006s-.03.036-.067.066v-.012a1.03 1.03 0 0 0-.054-.084c-.03-.043-.06-.079-.085-.11l.067-.072c.096.091.163.194.145.218l-.006-.006Zm-.369-.64s0-.018.012-.03c.018-.025.037-.037.037-.043h.012s.036 0 .048.012c0 0 .012.018.018.037.012.06.012.145.018.175l-.054.054a.192.192 0 0 1-.09-.103V5.18Zm-.15-.06h.011l.055.102a.325.325 0 0 0 .133.205l-.055.055-.205-.175-.012-.182h.072V5.12Zm-.218.235c.097 0 .181.036.235.103l.055.072v.018l-.085.085c-.078-.06-.175-.133-.211-.224V5.355h.006Zm0 .169.018.012c.054.048.109.09.163.139l-.066.072a.362.362 0 0 0-.194-.042h-.03v-.157l.109-.018v-.006Zm-.139.35c-.036 0-.054 0-.054-.012a.497.497 0 0 1-.037-.097h.013c.036-.012.072-.012.108-.012h.018c.055 0 .115 0 .157.03l-.072.073s-.085.018-.133.018Zm.242.127s-.019.018-.037.018c0 0-.012 0-.03-.018-.03-.036 0-.072 0-.079l.526-.543c.036 0 .06.012.06.018 0 0 0 .012-.018.036-.073.103-.435.483-.507.562l.006.006Zm.199.187c-.06-.042-.115-.108-.12-.145v-.018l.047-.048s.037.042.055.066c.018.03.036.049.048.073 0 0 0 .018.012.03 0 0-.036.024-.048.036l.006.006Zm.084.278s.073-.03.11-.054c0 0 .011 0 .011-.012.012 0 .048-.013.109-.013h.145a.158.158 0 0 1 .036.049c0 .03-.109.187-.145.223l-.284.055v-.025s-.036-.078-.054-.132c0-.013.03-.055.078-.097l-.006.006Zm-.302.085.157.048.103.187.32-.06.079.108c-.06.03-.17.079-.218.103a1.12 1.12 0 0 0-.15.109h-.176l-.03-.037-.036-.072s.03-.103.024-.187a.46.46 0 0 0-.066-.2H7.21Zm-.036.404.109.17.193-.013.06.054c-.048.019-.132.043-.169.06-.054.025-.126.116-.163.152l-.036-.012c0-.043.012-.157.018-.254a.597.597 0 0 0-.036-.187l.024.018v.012Zm-.199.495h.012c.03-.012.097-.018.145-.024 0 0 .03.012.03.024 0 .03-.036.097-.054.115a.539.539 0 0 1-.121.066l-.048-.048c0-.06.018-.115.036-.127V7.45Zm-.628.09v-.017s.012-.012.018-.012l-.024.03h.006Zm-.882.49c.037.024.06.042.09.054h.013c-.042.049-.073.09-.103.127 0 0-.018-.012-.024-.018 0 0-.054-.036-.084-.054-.03-.018-.055-.043-.085-.067.036-.036.079-.072.12-.108.031.018.061.048.097.066h-.024ZM5.4 7.927l.066-.066c.03.03.067.048.097.072 0 0 .054.037.084.049a.422.422 0 0 0-.048.06s-.018 0-.03-.012c-.03-.018-.054-.036-.085-.048l-.078-.055h-.006Zm1.25-.271c.09 0 .2-.012.253-.019l.013.037a.622.622 0 0 0-.151.157c-.019.036-.049.12-.067.169l-.054-.06.012-.188-.17-.115-.017-.024a.535.535 0 0 0 .18.037h-.005l.006.006Zm-.362.09a.82.82 0 0 0 .187-.024l.072.036.042.03v.176s-.084.09-.114.15c-.03.055-.079.158-.103.218l-.109-.079.06-.314-.186-.102-.049-.157c.055.03.133.066.2.072v-.006Zm-.29.236c.036-.049.078-.073.09-.073.06.018.103.036.127.055h.012s.012.012.012.018l-.054.277a1.232 1.232 0 0 1-.217.145c-.013 0-.037-.018-.055-.036v-.253a.518.518 0 0 0 .067-.127h.018v-.006Zm-.181-.055c.036 0 .09.018.12.03-.012.025-.036.079-.054.11 0 0 0 .011-.012.017-.024.055-.018.17-.012.26 0 0-.012.018-.018.03-.043.06-.085.085-.145.085-.103 0-.206-.085-.254-.121.073-.079.308-.338.344-.399 0 0 .018-.012.03-.012ZM5.58 7.77c.042 0 .103.06.145.121a.335.335 0 0 0-.036.048s-.024 0-.03-.012a.303.303 0 0 1-.073-.048c-.024-.018-.042-.036-.066-.054l.048-.049h.018-.006V7.77Zm-.284-.41h.024s.06.018.079.03c0 0 .012.024.012.03v.067c0 .03 0 .06-.018.096l-.079.073c-.03-.049-.03-.115-.03-.176 0-.048 0-.09.012-.132v.012Zm-.235.211.018-.109h.163V7.5c0 .066 0 .145.048.199l-.066.066-.157-.187H5.06v-.006Zm-.181.024h.042c.036.012.06.036.09.06.049.043.091.091.14.158l-.085.078a.355.355 0 0 1-.097-.06.345.345 0 0 1-.103-.242h.013v.006Zm-.224.23s0-.018-.012-.018v-.079l.181.018.187.218-.054.054a.303.303 0 0 0-.223-.139l-.079-.048v-.006Zm.218.277h-.121c-.043 0-.103 0-.109-.054v-.036l.024-.03s.06-.024.09-.024h.061c.048.024.079.06.103.096l-.055.054.007-.006Zm.102.097s-.03.018-.036.018c0 0-.012-.036-.012-.06l.537-.526s.018-.012.043-.012c.012 0 .03 0 .042.018.012.013.012.025.012.025 0 .018-.012.03-.018.036 0 0-.453.429-.562.507h-.006V8.2Zm.38.127c-.042 0-.138-.073-.21-.151l.072-.073c.042.03.072.06.108.085a1.03 1.03 0 0 0 .103.066.32.32 0 0 1-.066.067l-.006.006ZM7.107 10.856h.018s.03 0 .659-.368a.77.77 0 0 0 .223.042c.042 0 .079 0 .115-.018-.018.079-.133.302-.224.465l-.06.109a1.443 1.443 0 0 1-.465.507l.024.066s.369-.042.628-.35c.14-.169.266-.35.35-.483-.024.09-.06.217-.12.314-.121.193-.278.393-.29.399l.042.054s.187-.09.35-.217c-.066.09-.114.157-.114.163l-.06.078.096-.024s.38-.085.616-.308v.012a.631.631 0 0 0 .072.41c.049.073.127.152.157.188l-.012.35-.066.085-.073-.067c0-.09-.018-.29-.127-.29-.012 0-.03 0-.042.012-.084.043-.139.079-.163.091h-.193l.133.17h.102c0 .035 0 .072.037.12l.036.054c-.175.024-.266.06-.278.115-.012.054-.054.175-.054.175l-.018.048h.277l.11-.066c0 .072-.013.175 0 .236.017.09.035.168.041.175l.018.066.049-.048s.108-.127.133-.151a.45.45 0 0 0 .126-.254c.03.048.067.103.097.163a.57.57 0 0 1 .097.139v.018l.012.03h.018c.042 0 .157-.15.187-.235.036-.09 0-.145-.03-.17-.06-.047-.127-.114-.175-.162.066 0 .108-.018.139-.055.024-.03.03-.072.018-.126-.024-.097-.043-.14-.067-.163l.012-.236c.079.066.133.12.145.139 0 .054.085.084.145.09l-.036.043v.024s-.024.423-.054.543c-.037.121-.175.471-.175.471v.013l.048.307.054-.06c.03-.042.187-.242.212-.29v-.018c-.012.067-.019.109-.03.127-.055.078-.146.296-.133.374 0 .079.054.133.114.133.085 0 .163-.169.17-.187 0-.012.011-.036.017-.06v.531s0 .066.03.109c.019.024.049.036.085.042h.055c.138 0 .187-.097.193-.139l-.067-.471v.018c.037.06.121.079.133.085h.03l.012-.018s.06-.121 0-.32c-.024-.06-.042-.133-.066-.212l.145.175h.06c.037 0 .091-.012.14-.066.084-.097-.061-.326-.091-.374l-.284-.502c.03-.102.078-.235.096-.277h.03c.025 0 .055-.013.085-.043.018.049.097.163.145.23-.048.03-.108.072-.108.139 0 .078.024.217.03.247l.018.109.09-.193.067-.018s.072.054.072.084c0 .079.042.175.042.181 0 0 .06.085.121.085.018 0 .049 0 .073-.037.066-.078 0-.21-.03-.253l-.043-.17a.34.34 0 0 0 .157-.011s.018.024.037.072c.018.055.042.115.102.115.054 0 .079-.036.09-.06.019-.03.025-.085-.023-.182a1.734 1.734 0 0 0-.224-.271c.024-.018.067-.055.109-.055h.012c.054.012.103.09.12.115l.019.036.241-.163-.03-.036s-.235-.242-.386-.242h-.049a.662.662 0 0 0-.217.164.49.49 0 0 1-.12.096.172.172 0 0 1-.031-.103c0-.03.012-.09.079-.12.108-.055.38-.43.338-.634 0-.03-.018-.055-.037-.073l-.012-.066a5.23 5.23 0 0 1-.06-.502c.036.121.09.302.181.435.157.236.375.417.387.423l.054-.042s-.139-.26-.2-.483c0-.012 0-.03-.011-.043.042.079.078.151.12.224.145.278.411.501.423.513l.06-.042s-.157-.35-.241-.598c0-.018-.012-.042-.018-.06.048.084.097.163.139.223.145.211.459.459.47.471l.055-.042s-.187-.423-.278-.634c-.066-.151-.072-.278-.078-.338l.241.03-.06-.103c.066.012.145.018.23.018.144 0 .241-.012.265-.042l.049-.048-.06-.018s-.52-.133-.714-.496a2.331 2.331 0 0 1-.09-.175c-.193-.374-.41-.797-.682-.797h-.03c-.26.036-.466.453-.544.64a2.525 2.525 0 0 0-.145-.187c-.024-.024-.048-.066-.085-.12.03 0 .067 0 .103-.025a.425.425 0 0 0 .187-.211l.024-.055h-.398s-.06-.03-.103-.157c-.048-.139-.12-.199-.23-.199-.036 0-.072 0-.12.018a.49.49 0 0 0-.242.157 1.7 1.7 0 0 1-.21.036h-.055c-.043 0-.109 0-.17.073-.078.09-.066.187-.066.187v.048l.049-.024s.102-.042.15-.042H9.5v.012c-.019.03-.097.048-.145.054H9.31v.043s.037.157.127.187h.042a.94.94 0 0 0 .157-.018c-.012.054-.012.12.025.169.018.024.054.048.096.078a.298.298 0 0 0-.108.049c-.067.054-.224.277-.308.41l-.019-.078h-.09v-.012s0-.767-.085-.876c0 0 0-.012-.012-.018-.054-.079-.15-.205-.344-.205a.601.601 0 0 0-.217.042c-.2.078-.441.223-.755.743-.09.15-.157.277-.218.392-.144.278-.235.441-.477.598-.06.042-.09.054-.096.072 0 .019.012.037.018.055l.042.036.018.018Zm4.928.622c-.085-.09-.2-.223-.272-.362l-.036-.073c-.109-.21-.2-.386-.218-.434l-.072.012c0 .03.024.145.085.356.024.097.066.2.114.314a1.77 1.77 0 0 1-.223-.272 1.51 1.51 0 0 1-.17-.416c-.023-.073-.035-.121-.054-.145.06 0 .121.012.188.012.108.084.235.15.38.199a5.774 5.774 0 0 0 .278.785v.024Zm.205-.47c.049.102.115.265.218.488a2.025 2.025 0 0 1-.333-.35 3.852 3.852 0 0 1-.241-.417c.018 0 .036 0 .054.013.073.018.145.03.224.036a.947.947 0 0 0 .066.223h.006l.006.006Zm-4.583-.713c.018-.037.042-.079.06-.115.06-.109.127-.236.218-.387.302-.5.531-.64.718-.706a.622.622 0 0 1 .193-.042c.157 0 .23.102.284.169 0 0 .012.012.018.024.049.066.067.616.067.827 0 .036.018.06.042.079a.129.129 0 0 0 .073.018l.042.187.048-.072c.073-.11.272-.411.338-.465a.262.262 0 0 1 .151-.043h.036l.025-.066a.826.826 0 0 1-.182-.127c-.024-.03 0-.12 0-.163l.025-.066-.073.018s-.12.036-.193.036h-.024s-.043-.048-.055-.09c.049-.013.127-.03.157-.08.019-.023.019-.047.012-.072-.006-.024-.03-.054-.09-.054a.357.357 0 0 0-.12.024c0-.03.023-.054.041-.078a.135.135 0 0 1 .11-.049h.047s.067 0 .14-.018l.096-.018.018-.018a.384.384 0 0 1 .211-.145.368.368 0 0 1 .103-.018c.054 0 .115.018.157.15.06.188.151.206.17.212h.277a.29.29 0 0 1-.12.121.158.158 0 0 1-.067.018c-.042 0-.067-.018-.067-.018l-.054.042c.018.043.084.157.133.218.042.054.133.169.169.217 0 0 .012.012.012.018l.042.055.024-.067c.067-.169.284-.622.514-.652h.066c.139.03.278.217.399.429.06.102.114.217.169.32.03.06.06.127.09.18 0 .013.018.031.025.043 0 0 0 .012.011.018 0 0 0 .012.013.018.042.055.084.103.133.151l.036.03s.012 0 .018.013c0 0 .012.012.024.018.012 0 .024.018.036.024.06.042.127.078.205.115 0 0 .013 0 .019.012.012 0 .024.012.036.018.018 0 .042.018.06.024h-.09c-.2 0-.296-.036-.296-.036l-.103-.043.085.145-.176-.024v.03c-.163-.102-.29-.29-.368-.422a1.956 1.956 0 0 1-.139-.278l-.066.024s.217.562.573.767v.03c-.066 0-.132-.018-.199-.036-.495-.314-.622-.87-.622-.876l-.072.012s.102.472.489.804c-.634-.23-.658-.731-.658-.75h-.073c0 .037.018.218.157.418.03.048.073.09.115.132-.205-.012-.356-.078-.447-.187a.416.416 0 0 1-.09-.326l-.049-.012-.06-.054s-.06.09-.145.211c-.012-.024-.018-.048-.03-.072l.157-.218-.06-.048c-.043.06-.085.12-.133.181l-.013-.036v-.012l-.06.024-.072.012s0 .03.018.054l-.06.018.036.103c0 .012 0 .018.012.03-.03.043-.067.085-.097.121 0-.018-.012-.042-.018-.06l-.073.018s.019.054.03.114c-.06.073-.108.127-.144.158 0-.025-.012-.049-.018-.067l-.073.018v.024c.018.055.042.14.079.242a.525.525 0 0 1-.157.097l.024.066a.69.69 0 0 0 .157-.097c.018.049.03.09.048.14-.133.126-.254.204-.356.223l.012.072c.109-.024.23-.097.368-.223.012.036.024.066.036.096l-.21.175-.031.018.042.06s.103-.078.224-.18c.024.06.042.096.054.108l.054-.048s-.024-.042-.048-.109c.048-.042.097-.09.145-.132.03.066.048.108.066.126l.055-.048s-.024-.036-.06-.127c.048-.048.09-.09.126-.133 0 .013.012.025.018.03l.024-.018s.012.019.018.025l.055-.055s-.024-.036-.036-.072c.09-.115.15-.211.169-.296l-.073-.018a.764.764 0 0 1-.127.235c-.018-.042-.03-.09-.054-.15.012-.019.024-.03.036-.049v.018l.067-.03-.024-.06c.036-.049.066-.103.096-.151.018.048.042.09.079.126.078.091.187.157.332.188l-.012.012c-.03.048 0 .326.03.55a1.605 1.605 0 0 1-.139-.188s0-.012-.012-.018a11.296 11.296 0 0 0-.109-.187v-.012c0-.012-.012-.024-.018-.03-.012-.019-.018-.03-.024-.037l-.072-.12v.627h-.115c-.012 0-.018 0-.03.013 0 0-.012 0-.019.012 0 0-.018 0-.03.012 0 0-.018 0-.024.012 0 0-.018 0-.024.012-.012 0-.024.012-.03.018 0 0-.012 0-.012.012-.018.012-.03.024-.049.03-.145.103-.253.23-.265.236l.054.054c.085-.097.356-.35.544-.362v.012s-.013.018 0 .03c0 .036 0 .054.338.06.09 0 .108.043.114.073.037.163-.21.507-.295.555a.222.222 0 0 0-.115.182c0 .072.024.145.066.175.012 0 .024.012.036.012.049 0 .097-.042.176-.121a.578.578 0 0 1 .193-.145h.024c.079 0 .205.097.302.187l-.103.067c-.024-.037-.078-.103-.15-.121h-.03c-.098 0-.182.09-.194.103l-.024.024.024.024.012.012.018.018c.03.03.079.085.127.139.03.036.06.079.078.109 0 .012.012.024.018.036.013.03.019.06 0 .072 0 .012-.018.018-.036.018-.012 0-.024-.048-.03-.066-.018-.054-.048-.12-.109-.12h-.036c-.018 0-.042.011-.066.011-.055 0-.097-.018-.097-.018l-.072-.036.078.32v.012c.03.036.079.133.049.17h-.013c-.018 0-.042-.025-.06-.043 0-.024-.036-.097-.036-.145 0-.09-.115-.15-.127-.157h-.012l-.127.03c0-.042-.012-.078-.012-.102 0-.037.073-.079.103-.091l.048-.018-.03-.042a1.44 1.44 0 0 1-.157-.248s0-.042.03-.217c.018-.073.03-.14.03-.14l-.072-.017s-.018.066-.03.139c-.043.169-.079.199-.085.205-.024.024-.036.024-.036.024s-.018-.012-.037-.012c-.03 0-.054 0-.163.356v.018l.296.532c.06.09.133.247.103.284-.024.024-.048.042-.079.042h-.012l-.235-.29-.067.03c0 .03.043.205.11.38.041.115.03.194.023.23-.018 0-.042-.018-.054-.036a5.601 5.601 0 0 1-.151-.513l-.072.012.144.996s-.024.06-.12.066c-.037 0-.06 0-.079-.024a.096.096 0 0 1-.018-.048l.012-.996h-.072v.018c-.018.127-.06.404-.09.47-.025.061-.055.097-.073.121-.012.013-.024.019-.024.025-.025 0-.037-.03-.043-.06 0-.05.067-.248.121-.327.048-.084.066-.392.072-.465v-.012l-.072-.018a6.45 6.45 0 0 1-.109.314c0 .018-.066.097-.145.205l-.024-.127c.03-.072.109-.283.151-.416 0-.012 0-.024.012-.03v-.024c.037-.121.055-.478.06-.55.11-.127.103-.133.091-.151l-.012-.024h-.024s-.024 0-.036.012h-.03a.164.164 0 0 1-.097-.03c0-.012-.012-.06-.23-.236l-.06-.048-.024.423.06.012h-.03s0 .012.024.06c0 .018.012.036.018.06v.06c-.012.013-.036.025-.078.025-.054 0-.103-.012-.103-.012l-.139-.036.103.102s.127.127.223.212l.043.036s.018.018.018.042c0 .06-.06.145-.109.2a.702.702 0 0 0-.096-.127c-.157-.278-.182-.278-.206-.278H9.1l-.012.018s-.012.036 0 .066c.03.127-.054.236-.097.278-.012.012-.042.049-.09.103 0-.036-.018-.067-.024-.103-.018-.09.012-.284.012-.29l.012-.078-.224.133h-.15a.61.61 0 0 0 .042-.14.913.913 0 0 1 .277-.06h.067l-.036-.06s-.03-.036-.073-.103c-.036-.048-.018-.084-.018-.09l.024-.048-.163-.013-.018-.024h.073V12.1l.012-.012a1 1 0 0 1 .138-.078h.013s.054.096.054.23v.017l.157.145.127-.169.012-.405-.012-.012H9.19s-.103-.114-.151-.18a.492.492 0 0 1-.06-.351c.011-.054.144-.079.259-.079h.03c.048.013.181.043.32.091.055.018.097.036.14.054h.011l.042.018s.019 0 .025.013c.012 0 .018.012.03.018.012 0 .018.012.03.018 0 0 .018 0 .024.012.012 0 .018.012.03.018 0 0 .012 0 .018.012.013 0 .019.012.03.024l.013.012.03.03.054-.048c-.169-.193-.634-.314-.773-.344 0-.066.018-.223.018-.338 0-.133.103-.35.103-.35l.03-.06h-.072s-.248.054-.35.53c-.067.327-.465.484-.64.544.078-.109.187-.26.265-.38.115-.175.187-.471.205-.55v-.018l-.072-.024c-.018.054-.145.344-.242.561-.036.079-.132.2-.398.363.048-.067.12-.17.181-.266.12-.2.163-.49.17-.537l-.067-.03s-.206.356-.453.646a.953.953 0 0 1-.405.277c.103-.09.242-.235.338-.422l.06-.11c.146-.27.212-.404.23-.482a.851.851 0 0 0 .23-.06h.169l.042-.019s.03-.018.048-.024l.049-.03s.03-.018.042-.03c.03-.018.054-.042.085-.073.102-.096.169-.193.175-.205l-.06-.042s-.134.205-.315.308h-.012l-.036.018s-.018 0-.024.012H8.472l.223-.145a.96.96 0 0 0 .182-.344l-.073-.018s-.12.489-.604.567l.218-.187c.199-.247.356-.58.362-.598l-.066-.036s-.182.374-.387.616c0 0-.012.012-.018.024l-.012.012-.012.012s-.012.012-.012.018l-.012.013-.018.018-.019.024s-.012.018-.018.018c0 0-.012 0-.018.012 0 0-.018.012-.024.012H8.14a.23.23 0 0 1-.097.018c-.042 0-.096 0-.15-.024.253-.187.495-.49.7-.894v-.024s.018-.048-.018-.06h-.018s-.03.024-.049.054c-.32.616-.64.87-.851.972-.055.03-.115.067-.175.103.072-.085.127-.181.187-.29l-.012.036v.043Zm3.02-.248c-.025.036-.061.097-.11.163l-.036-.09c.06-.079.109-.151.14-.194v.121h.005Zm-.466.483c.012.048.024.085.036.12-.048.055-.09.11-.139.152-.012-.042-.03-.085-.042-.133l.145-.145v.006Zm-.169.067s-.018-.055-.024-.085c.036-.03.084-.079.145-.151 0 .024.018.054.024.079-.054.06-.097.108-.145.15v.007Zm.17-.302c.03-.037.066-.079.096-.121.012.024.018.054.03.078-.036.043-.066.085-.103.127 0-.03-.018-.054-.024-.084Zm.066.44c.012.043.03.085.042.115-.042.042-.09.085-.145.133-.012-.03-.024-.06-.036-.103.048-.042.09-.096.139-.15v.005Zm.03-.15a2.913 2.913 0 0 1-.036-.121l.108-.127a.803.803 0 0 0 .042.109 2.745 2.745 0 0 1-.108.139h-.006Zm.102-.538v-.012c0 .018.012.036.019.048l.012.024s0 .013-.012.019c0-.03-.018-.055-.025-.085l.006.006Zm.037.483c.018.055.042.097.054.133-.036.042-.079.085-.12.133-.013-.036-.03-.079-.043-.127.036-.042.073-.09.115-.139h-.006Zm.048-.2c-.012-.035-.024-.066-.03-.108 0 0 .012-.018.018-.024.012.03.03.06.042.09-.012.013-.018.025-.03.043Zm.658.834h-.06c-.151 0-.224-.012-.254-.018v-.435c.043.079.073.127.085.157v.012c.024.043.139.188.199.266 0 .012.018.018.024.03h.006v-.012Zm-2.174.06a.592.592 0 0 0 .121-.247c0-.03.012-.06.018-.085a.76.76 0 0 1 .181-.332.89.89 0 0 0-.066.278c0 .097 0 .23-.012.302v.03c-.06 0-.17.012-.242.049v.006Z" fill="#fff"/>
  <path d="m10.157 9.208.036-.06.043-.08v-.017c-.012-.03-.055-.133-.127-.133h-.018c-.06.012-.145.103-.163.12l.054.055c.03-.036.09-.09.12-.097 0 0 .031.03.055.073l-.024.048-.036.055-.024.036L10 9.105l-.06.042.133.188.09-.121-.006-.006ZM9.638 8.501h.024s.15.012.29.012h.175c.187-.012.429-.06.44-.06h.019l.459-.888-.054-.048-.375.284.012-.38-.235.295-.012-.393-.218.357-.181-.495-.163.561-.205-.26-.012.345-.363-.242.417.912H9.638Zm.785-.109c-.085.012-.2.03-.296.037h-.399c.067-.067.23-.206.405-.206h.012c.29.012.362.109.38.151v.012h-.108l.006.006Zm-.755-.434.012-.272.17.217.138-.489.157.429.163-.272.012.344.218-.278-.013.308.369-.271-.332.64c-.049-.067-.163-.151-.429-.163h-.012c-.205 0-.387.163-.459.235l-.272-.598.26.176h.018v-.006ZM13.835 5.748a.124.124 0 0 0-.248-.012.253.253 0 0 0-.145-.043h-.054a.237.237 0 0 0-.188.23l.03.145-.694.64a.405.405 0 0 1-.211-.127.285.285 0 0 1-.054-.157.59.59 0 0 0 .193.072c.03 0 .042-.018.042-.024.012-.024 0-.054-.024-.078-.097-.121-.145-.369-.145-.375l-.012-.066-.042.054s-.079.097-.145.133a.605.605 0 0 1-.194.067l-.054.012.127.139a.55.55 0 0 0 .024.386c.079.139.284.175.368.187 0 .043 0 .115.03.175.073.17.2.278.405.332h.049c.12 0 .26-.102.314-.15l.132.144.073-.797-.49.38.091.085h-.072c-.055 0-.12 0-.157-.048-.067-.079-.018-.217-.012-.248l.646-.603s.06.012.097.012c.078 0 .144-.025.187-.073.084-.084.048-.217.018-.29a.124.124 0 0 0 .127-.126l-.018.018.006.006Zm-.188.368a.196.196 0 0 1-.145.054c-.054 0-.096-.012-.096-.012h-.018l-.683.634s-.078.218.018.332c.043.049.11.073.206.073a.556.556 0 0 0 .157-.018l.06-.012-.133-.115.308-.248-.042.496-.072-.085-.025.024c-.036.036-.175.157-.29.157h-.03c-.18-.048-.296-.139-.362-.296a.365.365 0 0 1-.024-.133V6.89h-.03s-.206-.012-.308-.109a.145.145 0 0 1-.037-.048c-.072-.139-.018-.32-.012-.344V6.37l-.072-.09a.607.607 0 0 0 .157-.061.641.641 0 0 0 .12-.103c.019.079.061.223.134.32-.049-.018-.115-.054-.164-.078l-.036-.019-.012.043v.048c0 .048.012.127.067.205.09.127.26.157.265.157h.018l.75-.682-.037-.175s.018-.139.133-.163h.042c.115 0 .175.084.181.096.03.049.085.194.018.26v-.012h-.006Zm.012-.368c0-.037.03-.06.06-.06.031 0 .061.03.061.06a.06.06 0 0 1-.12 0Z" fill="#fff"/>
  <path d="M13.478 5.88c-.066 0-.12.049-.12.11 0 .06.054.108.12.108.067 0 .121-.048.121-.109 0-.06-.054-.108-.12-.108Zm0 .152c-.03 0-.054-.019-.054-.043 0-.024.024-.042.054-.042s.055.018.055.042c0 .024-.025.043-.055.043ZM15.96 6.925c-.055.06-.175.121-.266.17 0 0 0-.019-.012-.025.079-.012.127-.048.127-.084 0-.012 0-.03-.018-.043.066-.024.139-.072.127-.126-.012-.03-.049-.049-.11-.049-.03 0-.072 0-.108.018-.024 0-.048.018-.072.03.024-.03.024-.06.012-.084l.332-.338-.036-.036-.345.35.013.018s-.025 0-.043.012c0 0-.012-.03-.018-.03-.006 0-.018-.012-.024-.012-.018 0-.036.012-.054.024.012-.024.018-.048.03-.073v-.042l.308-.664-.043-.024-.26.567a.065.065 0 0 0-.047-.06h-.012c-.049 0-.091.066-.115.127 0 0-.018-.012-.03-.012.048-.121.084-.2.102-.224l-.042-.03c-.03.042-.085.181-.127.284-.012.018-.018.036-.03.066 0 0 0 .018-.012.025h-.024c-.024 0-.049.018-.067.054.043-.139.121-.393.194-.501l-.037-.025c-.09.14-.199.514-.223.592-.03.012-.06.055-.067.121a.055.055 0 0 0-.06 0c.048-.15.115-.356.175-.453l-.042-.024c-.09.145-.187.483-.217.586-.06 0-.091.09-.091.18h-.024c-.012 0-.024 0-.03.013.096-.296.217-.646.247-.676l-.012-.018-.012-.025s-.127.29-.308.834h-.03v.024l.127-.429s0-.012.012-.018c.012-.018.018-.03.024-.036l-.03-.036c-.079.06-.175.489-.23.736a.308.308 0 0 0-.03.133v.079s-.012.096-.103.344c0 .024-.018.048-.024.072-.078.212-.133.344-.133.344l.043.025c.018-.03.145-.248.241-.369 0 0 .012-.018.018-.024.09-.103.145-.217.163-.247h.067c.048 0 .09 0 .12-.025.188-.03.423-.078.478-.114l-.025-.043c-.042.03-.241.067-.404.097v-.018h.018c.09 0 .193-.03.193-.097 0-.012 0-.024-.018-.036h.042c.14-.018.375-.066.423-.163l-.042-.024v.012l-.236.084h-.024v-.024c.09 0 .181-.036.181-.096v-.012c.073-.019.236-.055.338-.097l-.018-.042c-.048.018-.12.042-.211.066V7.36c0-.012 0-.018-.012-.03.078-.012.127-.049.127-.09V7.22c.06-.024.326-.139.422-.241l-.036-.037h-.042l-.018-.018Zm-.35.103h-.012c-.03 0-.06 0-.079-.012h-.024s-.036-.018-.036-.024c0-.012.03-.03.09-.043.018.018.049.025.09.025.025 0 .055 0 .085-.013.018 0 .03.019.03.025 0 .012-.048.048-.144.048v-.006Zm-.14-.127h.013s.036 0 .06-.018V6.9l-.06.018v-.018h-.012Zm.242-.078a.25.25 0 0 1 .09-.013c.043 0 .061.013.061.019 0 .012-.036.054-.127.084a.274.274 0 0 1-.096.018c-.043 0-.055-.012-.06-.018v-.012s.06-.054.12-.072h.006l.006-.006Zm-.18-.03s.047-.03.066-.037c0 .012-.019.036-.049.06a.121.121 0 0 1-.066.037c0-.012.018-.037.048-.06Zm-.02-.067s0 .012-.011.03a.23.23 0 0 0-.06.079s-.013.012-.019.012v-.018s.012-.03.03-.049a.213.213 0 0 1 .06-.054Zm-.132.139h-.018c0-.018.012-.036.018-.06h.018s-.024.054-.018.078V6.865Zm-.018.102s.054-.036.066-.036c0 0-.012.03-.048.06a.121.121 0 0 1-.066.037c0-.012.018-.03.048-.06Zm0-.374c.024-.084.066-.127.085-.133.012 0 .024.042.012.115l-.043.09h.012s-.012.03-.018.037c-.018.024-.036.042-.042.042 0 0-.018-.084 0-.15h-.006Zm-.036.344s-.043.043-.055.067c0 0-.018.012-.024.012 0-.012.012-.036.037-.067a.212.212 0 0 1 .06-.054s0 .018-.018.042Zm-.188.266s.019-.036.049-.06a.12.12 0 0 1 .066-.037c0 .012-.018.037-.048.06-.03.025-.054.03-.066.037Zm.055.048s-.048.012-.066.018v-.018h.018s.03 0 .048-.012v.012Zm.066-.61s.018-.036.024-.06h.013s.012 0 .024.024a.294.294 0 0 0 0 .163s0 .012.012.012c-.012.067-.03.09-.043.09-.012 0-.042-.054-.042-.144v-.079h.006l.006-.006Zm-.084.049s.012.012.024.03c0 .042 0 .09.018.127 0 .09-.03.139-.042.139-.012 0-.049-.055-.049-.145s.03-.145.049-.145V6.69Zm0 .38s0 .024-.018.048a.165.165 0 0 0-.043.055c-.012.012-.024.018-.03.018 0-.012.012-.036.036-.067a.213.213 0 0 1 .06-.054h-.005Zm-.085.218s-.018.036-.048.06a.12.12 0 0 1-.066.036c0-.012.018-.036.048-.06.03-.024.054-.036.066-.036Zm-.03-.484s.012 0 .024.03c0 .049 0 .097.024.127 0 .091-.03.14-.042.14-.012 0-.048-.049-.048-.146 0-.096.03-.145.048-.145l-.006-.006Zm-.024.333h.012c-.012.024-.018.042-.012.06v.012h-.018c0-.018.012-.042.018-.066v-.006Zm-.066.169s-.019.018-.025.03c-.018.018-.03.024-.042.03 0-.012.012-.036.036-.066a.17.17 0 0 1 .06-.055c0 .012 0 .036-.03.06Zm-.17.253s.018-.036.049-.06a.12.12 0 0 1 .066-.036c0 .012-.012.036-.048.06-.03.024-.055.036-.067.036Zm.14-.634s.011.012.023.03c0 .049 0 .091.019.127 0 .09-.03.14-.043.14-.012 0-.042-.055-.042-.146 0-.09.03-.145.042-.145v-.006Zm-.115.115s.012.012.024.03c0 .042 0 .09.018.12 0 .085-.03.14-.043.14-.011 0-.042-.055-.042-.145s.03-.145.043-.145Zm0 .38s-.012.037-.037.067a.108.108 0 0 1-.048.042h-.012s.012-.036.036-.06c.024-.03.042-.043.06-.049Zm-.11-.205s.019.018.031.054v.151s-.018.018-.024.03a.13.13 0 0 0-.03.049.283.283 0 0 1-.03-.133c0-.097.03-.145.042-.145l.012-.006Zm-.041.405c.03-.024.054-.037.066-.037 0 .013-.018.037-.048.06-.03.025-.055.037-.067.037 0-.012.018-.036.049-.06Zm-.085-.278s.042.054.042.145c0 .09-.03.145-.042.145 0 0-.018-.012-.03-.037v-.024c0-.024-.012-.054-.012-.084 0-.097.03-.145.048-.145h-.006Zm-.12.223.011-.012s.037.049.037.133c0 .03 0 .054-.012.079l-.013.012s-.018.03-.018.036c0 0-.036-.048-.036-.127 0-.042.018-.078.024-.12h.006Zm-.067.556c-.03.036-.073.096-.127.175.018-.054.042-.109.06-.17a2.9 2.9 0 0 0 .097-.301c.012.024.03.036.054.036h.018l.049.03a1.015 1.015 0 0 1-.151.23Zm.368-.296a.47.47 0 0 0-.127.024h-.078s-.03-.018-.03-.024c0 0 .06-.03.127-.036h.012c.066 0 .102.024.114.03 0 0 0 .012-.018.018v-.012Zm.085-.079h-.103s-.042-.024-.042-.03c0 0 .018-.018.036-.024a.293.293 0 0 1 .109-.018h.012c.084 0 .139.03.139.042 0 .012-.049.043-.145.049v-.012l-.006-.007Zm.205-.138c-.03 0-.06 0-.085.012a.27.27 0 0 1-.126-.025c.018 0 .03-.018.048-.03.012 0 .018-.018.024-.024h.067c.03 0 .06 0 .078.012h.024s.018 0 .024.012l.012.012s-.03.025-.06.03h-.006Zm.097-.11c-.09 0-.14-.03-.14-.041 0-.012.05-.043.14-.049.03.012.072.018.114.018 0 0 .03.019.03.025 0 .012-.048.042-.144.048Zm.253-.156s-.066.036-.139.036h-.018c-.078 0-.114-.024-.127-.036 0 0 .06-.042.133-.042a.402.402 0 0 0 .127.018s.03.018.03.024h-.006Zm-.03-.079c-.097 0-.145-.03-.15-.042 0-.012.047-.042.138-.048.03.012.072.018.115.018h.012s.03.018.03.024c0 .012-.048.048-.145.048Zm.26-.157s-.073.037-.145.037h-.018c-.085 0-.133-.03-.133-.043 0-.012.048-.042.139-.048.03.012.072.018.114.018h.013c.012 0 .018.012.018.018l.006.012.006.006ZM15.966 5.313a1.24 1.24 0 0 1-.272.169s0-.018-.012-.024c.079-.012.127-.049.127-.085 0-.012 0-.03-.018-.042.054-.024.102-.054.12-.085.013-.018 0-.036 0-.042 0-.036-.048-.054-.108-.054-.03 0-.067 0-.103.018-.024 0-.048.018-.072.03.012-.018.018-.036.024-.048v-.03l.332-.35-.036-.037-.345.35.013.018s-.025 0-.043.013l-.012-.03s-.018-.013-.024-.013c-.018 0-.036 0-.054.024.012-.024.018-.048.03-.072v-.012l.417-.803-.043-.024-.368.706s0-.036-.012-.048a.08.08 0 0 0-.036-.03h-.018c-.049 0-.091.066-.115.126 0 0-.018-.012-.03-.012a5.4 5.4 0 0 1 .102-.223l-.042-.024a3.563 3.563 0 0 0-.127.278.2.2 0 0 0-.03.072v.018h-.036c-.03 0-.055.024-.067.06v-.03c.043-.145.121-.38.188-.483l-.037-.024c-.096.145-.205.52-.223.592-.03.012-.054.054-.066.12a.055.055 0 0 0-.06 0c.047-.15.114-.356.174-.452l-.042-.03c-.09.15-.2.507-.217.585-.06 0-.091.09-.091.181h-.024c-.012 0-.024 0-.03.013.108-.32.223-.647.241-.677l-.018-.042s-.133.29-.308.833h-.03v.024l.09-.32.03-.108a.174.174 0 0 1 .037-.06l-.03-.037c-.073.06-.175.49-.23.737a.288.288 0 0 0-.03.133V6.146s-.012.097-.103.344a6.067 6.067 0 0 1-.157.405l.043.03s.163-.284.26-.398c.09-.103.144-.218.162-.248h.055c.048 0 .09 0 .12-.024.188-.036.423-.079.478-.115l-.025-.042c-.042.024-.241.066-.404.096v-.018h.018c.078 0 .145-.018.175-.048.018-.018.018-.036.018-.042 0-.012 0-.024-.018-.036h.042c.14-.019.375-.067.423-.164l-.042-.024v.012l-.175.06-.085.025v-.024c.085 0 .181-.036.181-.09v-.019c.073-.018.242-.054.344-.097l-.018-.042a2.32 2.32 0 0 1-.211.067v-.025c0-.012 0-.018-.012-.03.078-.012.127-.048.127-.09V5.59c.06-.025.326-.14.422-.242l-.036-.036-.042.018-.006-.018Zm-1.413.35.018-.06V5.59s.012-.037.012-.055c0 0 .012-.036.012-.054V5.47s0-.024.012-.036v-.012s0-.025.012-.043v-.024l-.09.32.024-.012Zm1.069-.248c-.085 0-.14-.03-.14-.042 0 0 .037-.03.085-.042.018.018.049.03.09.03.025 0 .055 0 .085-.012.018 0 .03.018.03.024 0 .012-.048.049-.144.049l-.006-.007Zm-.145-.126h.018s.036 0 .06-.018v.018l-.06.018v-.018H15.477Zm.247-.079c.03-.012.067-.012.09-.012.037 0 .061.012.061.018 0 0-.054.06-.127.079a.241.241 0 0 1-.09.018c-.042 0-.06-.012-.06-.018 0 0 .054-.06.126-.085Zm-.18-.024c.03-.024.053-.036.066-.036 0 .012-.019.036-.049.06a.121.121 0 0 1-.066.036c0-.012.018-.036.048-.06Zm-.019-.072s0 .018-.012.03a.213.213 0 0 0-.06.072s-.012.012-.019.012c0 0 0-.03.037-.066a.212.212 0 0 1 .06-.054l-.006.006Zm-.145.12v.018h-.012c0-.018.012-.036.018-.06h.018s-.018.042-.018.06V5.24l-.006-.006Zm.042.049h-.018v-.018h.012v.012l.006.006Zm-.048.078s.048-.03.066-.036c0 .012-.018.03-.048.06-.03.024-.054.03-.066.037 0-.013.018-.037.048-.06Zm0-.38s0-.018.012-.03v-.025s0-.012.012-.018c.018-.036.043-.054.055-.054 0 0 .012.072 0 .133l-.037.072h.012s-.012.03-.018.036c-.018.025-.036.043-.042.043 0 0-.018-.085 0-.151l.006-.006Zm-.03.344s-.042.042-.054.066c0 0-.019.012-.025.018 0-.012.012-.036.037-.066.024-.03.042-.042.06-.048 0 0 0 .018-.012.036h-.006v-.006Zm-.024.181v.012h-.012V5.5l.012.006Zm-.06-.471s.017-.042.03-.066h.012s.012 0 .024.024a.295.295 0 0 0 0 .163s0 .012.012.012c0 .06-.03.09-.042.09-.012 0-.049-.048-.049-.144V5.04l.012-.006Zm.011.465s-.018.036-.048.06a.121.121 0 0 1-.066.037c0-.012.018-.037.048-.06.03-.025.054-.03.066-.037Zm-.066.139s-.048.012-.066.018v-.018h.012s.03 0 .054-.018V5.639Zm.018-.193h.018-.018Zm-.036-.369s.018.012.024.03c0 .049 0 .091.018.127 0 .09-.03.14-.048.14-.012 0-.042-.055-.042-.152 0-.09.03-.145.042-.145h.006Zm-.018.338h-.018v-.012h.012l.006.012Zm-.043.097s.043-.042.06-.048c0 0 0 .018-.017.036a.165.165 0 0 0-.049.06c-.012.012-.024.019-.03.019 0-.013.012-.037.037-.067Zm-.072.127V5.62s.018.006.03.006h.03-.018s-.03 0-.048.012h.006Zm.048.036s-.012.036-.048.06a.12.12 0 0 1-.066.037c0-.012.018-.036.048-.06.03-.025.054-.037.066-.037Zm-.03-.483s.012.012.024.03c0 .049 0 .09.018.127 0 .09-.03.139-.042.139-.012 0-.042-.048-.042-.145 0-.097.03-.145.042-.145v-.006Zm-.03.332h.012c-.012.024-.018.042-.012.06v.013h-.018c0-.018.012-.043.018-.067v-.006Zm-.066.17s-.025.023-.03.035c-.019.013-.03.025-.037.025 0-.012.012-.037.036-.067a.169.169 0 0 1 .06-.048c0 .012 0 .03-.024.054h-.005Zm0 .12v.012-.012h.018H14.976Zm-.019-.501s.018.012.024.03c0 .048 0 .09.019.127 0 .09-.03.139-.043.139-.012 0-.042-.049-.042-.145 0-.097.03-.151.042-.151Zm-.018.483h-.018c-.012 0-.03 0-.048.012v-.03s.012.012.024.012h.036l.006.006Zm-.133.15s.019-.035.049-.06a.179.179 0 0 1 .066-.036c0 .012-.018.036-.048.06a.12.12 0 0 1-.067.037Zm.013.055h-.025V5.99v.012h.024Zm.036-.235h.012v.018h-.012v-.018Zm-.018-.338s.018.012.024.03c0 .048 0 .09.018.127 0 .09-.03.138-.042.138-.018 0-.043-.054-.043-.144 0-.091.03-.145.043-.145v-.006Zm0 .386s-.012.036-.037.066a.14.14 0 0 1-.048.043h-.012s.012-.037.036-.067a.169.169 0 0 1 .06-.048v.006Zm-.115-.211s.018.018.03.048v.15s-.018.025-.024.031c-.012.018-.024.03-.03.048a.283.283 0 0 1-.03-.132c0-.097.03-.145.042-.145h.012Zm-.03.338h-.018v-.024h.012v.012l.006.012Zm-.006.066s.054-.036.066-.036c0 .012-.018.036-.048.06-.03.025-.055.03-.067.037 0-.012.018-.037.049-.06Zm-.097-.278s.042.049.042.145c0 .097-.03.145-.042.145 0 0-.018-.018-.03-.048 0 0-.012-.036-.012-.066v-.03c0-.097.03-.146.042-.146Zm-.006.393v-.054s-.012.042 0 .054Zm-.079-.272V5.9h-.012s0-.03.012-.049Zm-.03.103.012-.012s.037.042.037.133c0 .03 0 .054-.012.078-.019.018-.019.03-.019.042 0 0-.036-.042-.036-.126 0-.043.018-.079.024-.121l-.006.006Zm-.072.555c-.03.037-.073.097-.12.17.023-.055.041-.11.06-.163.054-.151.084-.248.096-.302.012.024.03.036.054.036h.018l.049.03a.896.896 0 0 1-.151.23h-.006Zm.374-.295c-.042 0-.084.018-.127.024h-.072c-.03 0-.042-.018-.042-.024 0 0 .06-.037.127-.037h.012c.066 0 .102.024.114.03 0 0 0 .013-.018.019v-.012h.006Zm.23-.115s-.067.036-.14.036c-.03 0-.06 0-.084-.012h-.012c-.03-.012-.042-.024-.042-.03 0 0 .072-.042.145-.042.054 0 .09.012.115.018.012 0 .018.012.024.018v.012h-.006Zm.066-.103c-.03 0-.06 0-.084.012-.043 0-.079 0-.103-.018-.012 0-.018 0-.024-.012.018 0 .03-.018.048-.03 0 0 .018-.012.024-.024h.151c.036.012.055.024.055.03 0 .006-.019.024-.06.036h-.007v.006Zm.115-.024.247-.085h-.012s-.012 0-.018.013H15.145l.048-.019v.043l-.006.048Zm-.03-.085h-.018c-.073 0-.121-.024-.127-.036 0 0 .048-.042.139-.048a.39.39 0 0 0 .12.018s.03.018.03.024c0 .012-.048.049-.144.049v-.007Zm.265-.157s-.066.037-.139.037c-.096 0-.144-.03-.144-.043 0 0 .066-.042.132-.042.03.012.073.018.115.018 0 0 .03.018.03.024v.006h.006Zm.006-.078h-.036c-.078 0-.127-.024-.139-.036v-.012s.067-.037.133-.037c.03.013.073.019.115.019h.012s.03.018.03.024c0 .012-.042.036-.115.048v-.006Zm.079-.115c-.079 0-.127-.024-.139-.036 0 0 .048-.042.133-.048.03.012.072.018.12.018 0 0 .03.018.03.024 0 .018-.053.048-.144.048v-.006ZM14.22 5.247l.043.03s.163-.284.26-.399l.054-.072c0-.012.018-.024.024-.036.012-.013.018-.03.03-.043h.043v-.09h.066c.048 0 .09-.012.127-.024.187-.037.422-.079.477-.115l-.024-.042c-.043.03-.242.066-.405.096v-.018h.012c.097 0 .194-.036.194-.097 0-.012 0-.024-.019-.036h.043c.139-.018.374-.066.422-.163l-.042-.024v.024l-.266.085v-.024c.09 0 .181-.037.181-.097v-.018c.073-.018.242-.055.345-.097l-.018-.042c-.049.018-.121.042-.218.066v-.024c0-.012 0-.018-.012-.03a.153.153 0 0 0 .109-.048c.018-.018.018-.03.018-.043v-.018s.03-.012.054-.024c.103-.042.29-.133.369-.217l-.037-.037a.909.909 0 0 1-.271.17s0-.019-.012-.025c.078-.012.126-.048.126-.09 0-.012 0-.024-.018-.036.03-.012.06-.03.085-.043.048-.036.048-.072.042-.084-.012-.03-.048-.049-.103-.049-.03 0-.072 0-.108.019-.024 0-.049.018-.073.03.012-.018.018-.036.024-.049v-.03l.333-.35-.037-.036-.344.35.012.018s-.024 0-.042.012l-.012-.03c-.012-.012-.036-.012-.06 0l.392-.513-.036-.03-.344.452v-.084c0-.042-.019-.079-.049-.09h-.036c.036-.073.145-.272.181-.309l-.03-.036c-.054.048-.187.302-.223.375v.012l.018.012s-.024.042-.037.072c0 0-.018-.012-.03-.012a1.78 1.78 0 0 1 .103-.223l-.036-.024a3.49 3.49 0 0 0-.127.277c-.012.018-.018.043-.03.067l-.012.024h-.025c-.03 0-.048.018-.066.06.042-.133.127-.398.193-.507l-.042-.03c-.09.145-.2.52-.223.598-.03.012-.055.054-.067.12a.055.055 0 0 0-.06 0c.048-.15.114-.35.175-.452l-.042-.03c-.091.15-.194.507-.218.585-.06 0-.09.09-.09.181h-.024s-.025 0-.03.012c.096-.296.223-.646.24-.676l-.011-.018-.012-.018s-.127.29-.308.833h-.03l-.013.012V4.1l.127-.429a.174.174 0 0 1 .037-.06l-.03-.036c-.08.06-.176.489-.23.737a.288.288 0 0 0-.03.132V4.528s-.012.066-.049.181V4.751l-.018.049c0 .024-.018.042-.024.072-.012.024-.018.048-.024.073 0 .012 0 .018-.012.03-.06.163-.103.272-.121.302l-.042-.018-.006-.012Zm.502-1.564-.097.32c.024-.11.06-.236.097-.32Zm-.085 1.032.03-.048v.048h-.03Zm.314-.241c-.09 0-.145-.03-.145-.043 0-.012.043-.042.145-.048.091 0 .14.03.14.042 0 .012-.055.049-.146.049h.006Zm-.18-.127s.054-.036.066-.036c0 .012-.018.036-.049.06a.12.12 0 0 1-.066.036c0-.012.018-.036.048-.06Zm.168-.121s.055-.036.067-.036c0 .012-.018.036-.049.06a.12.12 0 0 1-.066.036c0-.012.018-.03.048-.06Zm.218.109c-.03 0-.06 0-.085.012h-.012a.231.231 0 0 1-.115-.024c.018 0 .03-.018.049-.03.012 0 .018-.019.03-.025h.145c.036.012.054.024.054.03 0 .007-.018.025-.06.037h-.006Zm-.018-.375h.054-.012s-.03 0-.048.012v-.024.012h.006Zm.048.055s-.018.03-.048.06a.121.121 0 0 1-.067.036c0-.012.018-.036.049-.06a.179.179 0 0 1 .066-.036Zm.338.211a.844.844 0 0 1-.302.097l.302-.097Zm-.15-.024s-.067.024-.122.024c-.09 0-.145-.03-.15-.042 0-.012.048-.043.138-.049.03.013.073.019.115.019 0 0 .03.018.03.024 0 .006 0 .012-.024.024h.012Zm-.019-.097c-.097 0-.145-.03-.145-.042 0 0 .066-.042.139-.042a.352.352 0 0 0 .115.018s.03.018.03.024c0 .012-.048.042-.145.048l.006-.006Zm-.066-.23s.048-.035.066-.035c0 0-.012.03-.048.06-.03.024-.055.036-.067.036 0-.012.018-.036.049-.06Zm.332.08s-.067.036-.145.036c-.097 0-.145-.03-.145-.043 0 0 .066-.042.133-.042.03.012.072.018.114.018 0 0 .03.018.03.024l.007.006h.006Zm-.163-.26s.054-.037.066-.037c0 0-.018.03-.048.06a.12.12 0 0 1-.067.037c0-.012.018-.036.049-.06Zm.133.175c-.085 0-.14-.03-.14-.042 0 0 .061-.043.133-.043a.39.39 0 0 0 .121.018s.03.018.03.025c0 .012-.048.048-.145.048V3.87Zm.114-.115c-.078 0-.127-.024-.139-.036 0 0 .037-.03.085-.042.018.018.048.024.09.024.025 0 .055 0 .085-.012.018.012.03.018.03.018 0 .012-.048.048-.145.048h-.006Zm.103-.205a.25.25 0 0 1 .09-.012c.043 0 .06.012.06.018 0 0 0 .018-.023.036a.326.326 0 0 1-.103.048c-.03.012-.066.012-.09.012-.043 0-.06-.012-.06-.018v-.012s.053-.054.126-.072Zm-.181-.03s.054-.037.066-.037c0 0-.018.03-.048.06-.03.025-.055.037-.067.037 0-.012.018-.036.049-.06Zm-.018-.067s0 .018-.012.03a.23.23 0 0 0-.06.079s-.013 0-.019.012a.188.188 0 0 1 .09-.12Zm-.151-.133c.024-.084.066-.133.084-.133.012 0 .03.06 0 .157-.024.085-.066.127-.078.127 0 0-.018-.078 0-.15h-.006Zm-.03.344s-.049.049-.055.067c0 0-.018.012-.024.012 0-.012.012-.036.036-.066a.213.213 0 0 1 .06-.055s0 .018-.011.036h-.007v.006Zm-.073-.295s.018-.037.024-.06h.012s.012 0 .024.023a.293.293 0 0 0 0 .163s0 .012.012.012c0 .06-.03.091-.042.091-.012 0-.042-.054-.042-.145v-.078l.012-.006Zm-.085.048s.018.012.025.036c0 .042 0 .085.018.12 0 .091-.03.14-.043.14-.012 0-.042-.049-.042-.145 0-.097.03-.145.042-.145v-.006Zm-.066.435s.042-.043.054-.049c0 .012 0 .024-.018.043-.018.018-.036.036-.042.054-.012.012-.024.018-.03.018 0-.012.012-.036.036-.066Zm-.048-.32s.012.012.024.03c0 .048 0 .09.018.127 0 .09-.03.139-.042.139-.012 0-.043-.049-.043-.145 0-.097.03-.151.043-.151Zm-.085.495s-.024.024-.03.036c-.018.018-.03.024-.036.024 0-.012.012-.036.036-.066.024-.03.048-.043.06-.049 0 .012 0 .03-.024.055h-.006Zm-.03-.38s.012.011.018.03c0 .03 0 .066.012.096v.03c0 .09-.03.14-.042.14-.012 0-.048-.05-.048-.146 0-.096.03-.15.048-.15h.012Zm-.12.12s.011.012.023.03c0 .049 0 .09.018.127 0 .085-.03.139-.042.139-.012 0-.048-.048-.048-.145 0-.097.03-.15.048-.15Zm0 .38s0 .037-.037.073c-.018.024-.042.036-.048.042 0 0 .012-.036.03-.066a.213.213 0 0 1 .06-.054l-.006.006Zm-.116-.21s.019.011.03.041c0 .019 0 .03.013.049v.114s-.018.019-.024.03c-.012.019-.025.03-.03.049a.283.283 0 0 1-.03-.133c0-.096.03-.145.047-.145h-.005v-.006Zm-.132.126s.042.048.042.145c0 .097-.03.145-.042.145 0 0-.018-.012-.03-.042v-.019c0-.024-.013-.054-.013-.084 0-.097.03-.145.043-.145Zm-.049.465s.067-.03.127-.03c.073 0 .109.018.12.03l-.011.012c-.043 0-.09.018-.133.024-.072 0-.109-.024-.109-.036h.006Zm-.06-.236.012-.012s.036.043.036.127c0 .03 0 .055-.012.079h-.012c-.018.018-.018.03-.018.036 0 0-.036-.042-.036-.127 0-.036.018-.078.024-.12v.011l.006.006Zm-.133.562c.054-.15.085-.248.097-.302.012.024.03.036.054.036h.024l.049.03a1.018 1.018 0 0 1-.152.236c-.03.036-.072.097-.126.17.018-.055.042-.11.06-.17h-.006ZM16.437 7.433c.048.078.115.187.15.241.037.06.02.23 0 .302v.054h.067v-.048c.018-.127.03-.272-.018-.344 0 0-.012-.018-.018-.024 0 0 0-.012-.012-.018-.054-.091-.139-.23-.157-.266l-.06.024.042.072.006.006ZM17.422 6.23c0-.036-.018-.06-.055-.09h.049v-.066l-.182.018v.06c.055.012.133.042.133.073 0 .078.037.247.043.253l.066-.012c0-.03-.036-.18-.036-.241h-.012l-.006.006ZM17.259 6.623l-.11-.042-.03-.133.037-.042V6.4l-.048-.036v-.006l-.055.072.037.193v.006l.126.049.055.114.036.339v.006l.066-.006-.036-.35-.078-.158ZM16.733 5.76a.46.46 0 0 1-.085.097h-.012l.043.048s.072-.067.108-.121c.049-.072-.114-.205-.253-.308l-.036.048c.126.091.235.194.241.218v.012l-.006.006ZM17.035 7.1v-.018c0-.048.03-.139.06-.211 0-.012.013-.024.013-.036l-.06-.03c-.019.042-.103.235-.08.307.013.043.043.073.073.103a.263.263 0 0 1 .042.048c-.024.055-.012.242-.012.284h.067v-.26c.018-.048-.024-.084-.06-.12-.025-.024-.049-.049-.055-.073h.006l.006.006ZM4.637 6.539h.043l.253.096H4.975c.03-.012.049-.03.055-.054 0-.018 0-.042.012-.066 0 0 0-.019-.012-.025l-.193-.114v-.06c.066-.013.217-.043.296-.128.012-.012.018-.024.03-.036a.305.305 0 0 0 .048-.078h.103a.579.579 0 0 0-.043.314c.03.127.248.314.314.374-.03.042-.078.12-.078.175 0 .079.066.157.078.17l.019.023.302-.265v-.03c.018-.055.03-.133-.013-.163-.03-.019-.078-.043-.096-.055l-.151-.181.072-.163c.037.012.103.03.218.036h.024a.313.313 0 0 0 .23-.09c0 .012 0 .024.011.036.025.066.188.157.26.2l-.024.06-.079.18v.025s0 .048.025.072c.012.012.03.024.048.024.018 0 .036 0 .054-.018.085-.042.236-.175.26-.193l.012-.012-.012-.254-.012-.012s-.212-.15-.212-.344v-.139c.013-.139.025-.235-.169-.272-.078-.018-.138-.018-.193-.018h-.066c-.06 0-.09 0-.115-.036-.054-.066-.048-.26-.024-.296h.012s.06.055.09.079c.06.06.121.12.17.133.03 0 .06.012.096.012.109 0 .17-.049.17-.133v-.048s.017-.055.017-.067v-.054l-.048.018s-.03.036-.036.078H6.4c-.018 0-.055 0-.115-.036-.054-.03-.103-.054-.139-.078-.09-.055-.15-.085-.205-.085-.024 0-.043 0-.06.018-.043.03-.061.103-.073.145-.018.109-.012.26.054.35a.464.464 0 0 0 .223.145c.025.012.049.018.073.03 0 0 .012 0 .018.013.043.03.055.078.06.108h-.023a.43.43 0 0 1-.206-.066 3.506 3.506 0 0 0-.374-.205l-.012-.11-.049-.102s.043-.054.037-.115c0-.054-.043-.102-.067-.132a.222.222 0 0 0 .036-.085v-.048s0-.018-.012-.024a.225.225 0 0 0-.09-.073c-.024-.012-.036-.018-.036-.03 0-.03-.019-.23-.025-.344l-.06-.012c-.066.139-.187.338-.242.362h-.012c-.23.09-.38.17-.356.254a.572.572 0 0 0 .09.175v.012s.049.018.091.03c-.03.018-.042.042-.042.066 0 .055.054.121.066.133l.013.012h.102l-.012.127h-.133l-.187-.29c-.018-.024-.036-.048-.048-.072 0 0 0-.012-.012-.018 0 0-.012-.018-.018-.024-.006-.006-.013-.019-.019-.019-.012-.012-.024-.012-.03-.012-.012 0-.024 0-.03.012-.018.025-.03.091-.03.206-.06-.018-.163-.055-.205-.055 0 0-.03 0-.043.019 0 .012-.012.024 0 .036 0 .03.024.06.043.078l-.121.097.15.084-.156.157.102-.018s.067-.012.133-.018h.133c.06 0 .079 0 .085.012.042.03.126.073.187.103 0 0 .018 0 .024.012-.042.079-.103.157-.139.157-.084 0-.193 0-.223.048-.012.012-.012.03-.012.043l.012.036v.03l-.453-.302s-.012-.018-.024-.018h-.073l-.211.03h-.012s-.018.012-.018.018v.024l.175.218.012.012c0 .012.018.024.024.03 0 0 .018 0 .03.012h.012l.314.09.127.037c0 .012 0 .024.012.036.042.073.115.073.12.073h.05l.011.042.024-.042ZM5.93 5.126l-.012.012s.018-.043.024-.049c0 0 .018-.012.03-.012.036 0 .09.03.175.079 0 0 .012 0 .018.012.036.018.073.042.121.066.066.037.12.049.163.043v.042c-.024.03-.066.042-.103.042-.024 0-.054 0-.078-.012a.595.595 0 0 1-.151-.12c-.067-.061-.109-.103-.145-.11H5.96s-.024 0-.036.013l.006-.006ZM4.45 6.339l-.465-.132-.175-.218.224-.03.446.308-.03.072Zm.544.176v.042s-.018.024-.037.03h-.012l-.199-.079.079-.09.18.103H5l-.006-.006Zm.585-.091.182.217h.012s.066.043.096.06c0 .013 0 .055-.018.103l-.241.212s-.043-.067-.043-.097c0-.042.055-.12.085-.163l.018-.024-.024-.018c-.079-.067-.29-.254-.32-.356-.03-.115.036-.272.054-.308a.23.23 0 0 0 .09-.03c.013 0 .025-.013.03-.025 0 .018.013.036.02.049.03.078.084.144.15.175l-.09.205Zm-.839-.658s-.012 0-.018-.012c-.024-.018-.06-.024-.12-.024-.061 0-.128 0-.182.012l.072-.079-.138-.072.102-.079-.024-.024s-.024-.024-.036-.042c.048.012.139.036.205.06l.042.018v-.223c.055.072.17.253.254.392v.018h.048s.012.012.025.012c.042 0 .078-.012.126-.012h.025c.12 0 .205.03.265.085h.018c.012 0 .024 0 .024-.018v-.024a.427.427 0 0 0-.277-.097l.024-.2H5.03s-.042-.06-.042-.078c0 0 .042-.03.084-.036h.012v-.012s.024-.03.012-.054c0 0-.012-.025-.042-.025h-.03a.366.366 0 0 1-.109-.03V5.21a.411.411 0 0 1-.078-.145s0-.048.314-.169h.012c.066-.03.157-.169.223-.29v.037c0 .084.012.175.018.199.012.036.043.054.073.072.024.012.048.03.072.055.024.042-.018.084-.024.09-.048-.03-.103-.06-.15-.06 0 0-.025.012-.025.03 0 .012 0 .024.024.024.048 0 .097.03.133.055l.072.054c.019.024.03.048.03.078 0 .049-.017.067-.024.067a.477.477 0 0 0-.175-.067s-.018.012-.024.018c0 .013 0 .019.012.025h.012a.335.335 0 0 1 .175.078l.019.042s0 .019.012.019l.012.024.012.139h.018v.012c.042.024.272.139.374.205.121.085.29.085.302.085h.03v-.03s0-.127-.09-.2c0 0-.018-.012-.024-.012a1.18 1.18 0 0 0-.085-.036c-.012 0-.024-.012-.036-.012-.018 0-.036-.012-.048-.025h.126c.049 0 .11 0 .182.019.018 0 .03 0 .042.012.066.018.078.054.078.108V5.941c0 .205.176.35.23.386l.012.194c-.042.036-.17.138-.242.175h-.03v-.03l.079-.176.042-.114-.024-.012a1.244 1.244 0 0 1-.2-.121.218.218 0 0 1-.054-.055 1.126 1.126 0 0 1-.024-.09l-.06-.018s-.085.12-.218.12h-.018c-.163-.012-.217-.036-.217-.036l-.03-.024v.012a.282.282 0 0 1-.133-.163c0-.024-.012-.054-.018-.084v-.049s-.012-.012-.019-.012c-.012 0-.018 0-.024.012v.037s-.012.048-.042.06c-.018.012-.042.018-.066.024h-.151c-.067 0-.133-.036-.181-.06-.019-.012-.043-.024-.067-.037v-.012l-.024-.012s-.012 0-.024-.012h-.018c-.049-.024-.121-.06-.163-.084H4.77l-.03.006Zm-.169.67s-.042 0-.066-.042v-.012s.03-.024.042-.03h.012l.042-.14-.012-.048s.073-.024.17-.024c.078 0 .162-.133.192-.193.025.012.043.024.067.036.036.018.072.036.109.048l.012.013s-.012.036-.06.09c-.08.09-.279.109-.285.109h-.03v.139l-.078.078h-.018l-.012-.036-.103.018h.018v-.006ZM3.907 5.433l.036-.21.042-.013s.042.054.073.054c.012 0 .03 0 .036-.018.03-.03.048-.15.06-.199a.88.88 0 0 0 .151-.09l.012-.019s0-.018.012-.024a.246.246 0 0 0 .036-.066l.151.09.085.055V4.75l-.072-.048.012-.018.12.024h.23v-.175h-.024c-.049-.018-.133-.049-.163-.067 0-.024.03-.09.066-.145l.012-.024-.012-.012v-.078c0-.067-.024-.079-.03-.079h-.012s-.018-.012-.03-.018a.53.53 0 0 0-.073-.042v-.103l.115.073h.06l.055.012v-.037l.042-.084.211.09v-.18l.079-.013.15-.2-.066-.072s0-.018-.012-.03c0 0 0-.024-.012-.03V3.46l-.024-.048v-.025l-.024-.03H5.18s-.018 0-.03.012a.58.58 0 0 0-.121.187l-.043.103-.042-.018-.054-.066v-.025c.042-.054.048-.09.036-.108l.012-.049-.054.013a1.213 1.213 0 0 0-.266.096c0-.024-.018-.06-.048-.066h-.018c-.037 0-.073.024-.103.048 0 0-.012-.024-.018-.03 0 0-.024-.018-.042-.018h-.025s-.048.018-.072.036h-.012a.694.694 0 0 0-.066.042s-.03.024-.055.06l-.03.03H4.1s-.036 0-.06.013H3.99l-.012.024-.012.012s-.036.054-.06.115c-.013.024-.025.042-.03.054 0 0-.025.012-.08.012h-.06l-.012.17v.084h-.024s-.012 0-.018.012l-.127.054h-.072c-.127 0-.205 0-.242.012-.024 0-.042.018-.048.043-.012.03 0 .066 0 .09-.211.133-.211.175-.211.187 0 .037.06.103.108.151 0 0-.018.019-.03.037a.545.545 0 0 0-.054.06c-.055.06-.097.139-.097.205V5c0 .03.018.054.036.066l.012.181s.019.109.091.109c0 .12.012.272.036.32.012.03.03.054.06.054.019 0 .037-.012.043-.036l.024-.072.12.157.043-.163.139-.012V5.47l-.145-.181.018-.115.085.036c.066.048.18.133.223.133h.018s.049-.024.073-.042v.29l.193-.17-.042.012h-.03Zm.144-.235s-.018-.024-.024-.042v-.012l-.096-.242.03-.036a.27.27 0 0 0 .133.175.785.785 0 0 1-.037.15h-.006v.007Zm.206-.302a.617.617 0 0 1-.14.073.41.41 0 0 1-.072-.079.212.212 0 0 1-.018-.097l.085-.072.2.103s-.025.054-.055.078v-.006Zm-.224-.314v-.024h.03c.03 0 .06 0 .073.012v.024s-.012.024-.024.03h-.024s-.055-.012-.073-.03v-.018h.012l.006.006Zm.49.2v.09l-.182-.109a.385.385 0 0 0-.169-.09l.018-.018s.024-.037.024-.055l.025-.012.193.133.09.06Zm-.206-.236.127.084-.012.012-.127-.09h.006l.006-.006Zm.495.03v.072h-.157l-.12-.024-.157-.108c.03-.019.054-.03.078-.049a.51.51 0 0 0 .175.049c.03.024.115.054.17.066h.011v-.006Zm-.12-.272-.073.109-.054-.012.12-.097h.007Zm-.03-.15s.017.011.017.017v.055l-.483.302s-.03-.03-.06-.043h-.018l.453-.374.096.042h-.006Zm-.11-.266v.018l.055.036h-.139l-.012-.115.109-.03v.085h-.012v.006Zm.254.066-.048-.012-.139-.09v-.085l.054-.06.151.193-.012.054h-.006Zm.32-.513s.043.048.067.09h-.121c.024-.036.048-.066.06-.09h-.006Zm-.102.157.09.012.085-.012.024.036-.073.085s-.048.024-.096.024c-.03 0-.048-.043-.06-.073l.03-.072Zm-.151.084.157.14-.012.066-.14-.055-.138-.187.048-.048.097.078h-.012v.006Zm-.314-.127s.018 0 .024-.024c.03 0 .12-.024.205-.066v.018l-.2.205-.132.055s-.018 0-.024-.018c.012-.025.036-.06.06-.097.024-.024.049-.054.073-.079l-.006.006Zm-.188-.012v-.012l.043-.036c.024-.018.054-.03.066-.036v.036l-.066.097c-.049.06-.079.102-.079.133v.018l-.024.024s-.054.036-.09.054h-.055c.03-.054.121-.175.193-.272h.013v-.006Zm0 .35c0 .067-.066.11-.066.11s-.066.054-.109.066l.019-.067c.012-.036.03-.084.048-.126a.166.166 0 0 0 .109-.06v.078ZM4.1 3.707v-.048s.012-.042.03-.066c.03-.03.066-.06.109-.09a.246.246 0 0 1 .066-.037v.024l-.157.254s-.012.018-.018.024v.012h-.018l-.018-.054v-.013l.006-.006Zm.006.182v-.012l.054.012v.096a.165.165 0 0 0-.024.085l-.012.036-.073.066v-.09s.037-.09.06-.2h-.005v.007Zm-.218-.11s.037-.06.06-.102c0 0 .019 0 .025-.012h.036l.018.06c0 .03 0 .06.018.085 0 .024 0 .048-.012.073l-.012.054c0 .042-.018.066-.024.09l-.042-.042-.09-.145.023-.06Zm-.175.224a.24.24 0 0 1 .018-.096h.079c.054.072.12.169.127.187a.66.66 0 0 1 .036.15s-.012.013-.024.019l-.236-.193v-.067Zm-.096.151.036-.018.175.14.066.03v.023c-.012 0-.036.025-.048.03a1.567 1.567 0 0 1-.175-.084l-.115-.084s.049-.03.067-.037h-.006Zm-.453.073s.108-.012.223-.012h.079s.012.018.024.03l-.018.103.247.042v-.012c.03.012.06.03.09.042v.012c0 .012-.017.024-.035.048H3.46l.03-.03-.018-.102h-.09s-.116-.055-.2-.055c0 0-.012-.048 0-.06H3.17l-.006-.006Zm.356.459.018-.151h.187l-.205.271v-.12Zm-.042-.151-.012.139-.103.078-.024-.181.042-.036h.097ZM3.41 4.43l.012-.024v.012l-.012.012Zm-.428.054.132-.12c.013-.012.03-.018.06-.018.055 0 .128.03.152.042 0 .018-.024.048-.067.102a.201.201 0 0 1-.066.06.176.176 0 0 1-.097.031h-.036l-.072-.09h-.006v-.007Zm.126.689.043-.09.048.035v.019h.018l.036.03-.018.139-.072-.037.024-.024-.085-.072h.006Zm.091-.127-.03-.024.03-.181h-.018c.012-.043.036-.109.012-.151a.088.088 0 0 0-.054-.036h-.018a.22.22 0 0 0 .144-.073l.03.2v.017c-.066.06-.09.182-.096.248Zm-.302-.036s-.012-.024-.012-.036c-.012-.103.127-.266.145-.284.018 0 .048.012.09.024h.013s0 .078-.019.103v.018s-.12.102-.217.175Zm.097.247-.018-.012v.055-.037l-.012-.18c.084-.061.15-.11.193-.146l-.012.097-.067.133-.054.102-.03-.012Zm.12.121-.024.181-.03.085a2.219 2.219 0 0 1-.024-.308V5.295l.036-.067.067.06.018.121-.06-.03h.017Zm.266.127v.048l-.127.012-.024.09-.078-.096.012-.078.09.048-.024-.157.036.018v-.018l.115.139v-.006Zm-.036-.495-.024.03-.055.018c0-.042.025-.169.079-.217l.036-.03s.055-.03.073-.043c0 .03-.012.09-.018.14l-.085.114h-.012V5.01h.006Zm.072.145s-.024-.012-.036-.024c0 0 0-.019-.012-.025.048-.06.44-.573.495-.646.036-.048.357-.29.556-.44.012 0 .054-.019.09-.019h.025v.037l-.133.108c-.145.109-.399.302-.477.369-.012.012-.03.03-.055.06l-.024.018-.072.09c-.133.158-.296.363-.363.448 0 0 0 .012-.012.012l.018.012Zm.17.09-.103-.066.41-.532.073-.054.012.036.036.043-.435.573h.006Zm.265.157-.066.06v-.271h-.018l-.012-.042.09-.127.012.266-.018.114h.012ZM5.779 14.806v-.037a.175.175 0 0 0-.175-.175.182.182 0 0 0-.163.103.172.172 0 0 0-.163-.103.175.175 0 0 0-.006.35c0 .019-.012.043-.012.06a.175.175 0 0 0 .35 0c0-.017 0-.041-.012-.06a.17.17 0 0 0 .169-.144h.012v.006Zm-.501.078a.115.115 0 0 1-.115-.115c0-.066.048-.114.115-.114.066 0 .114.048.114.114 0 .03-.012.06-.03.079-.012 0-.024.018-.036.024h-.042l-.006.012Zm.163.236a.115.115 0 0 1-.115-.115c0-.067.048-.115.115-.115.066 0 .114.048.114.115a.111.111 0 0 1-.114.115Zm.157-.236s-.037 0-.055-.012c0 0-.012 0-.018-.012-.024-.024-.042-.054-.042-.085 0-.06.048-.114.115-.114.066 0 .114.048.114.114a.111.111 0 0 1-.114.115v-.006ZM4.86 12.584h.043c.06 0 .266-.019.266-.254 0-.193.048-.332.078-.344h.012s.018.072.018.187c0 .036 0 .066.019.084a.066.066 0 0 0 .06.037c.06 0 .12-.06.133-.073v-.018c0-.036.024-.241-.042-.356l-.019-.024a.134.134 0 0 0-.102-.055h-.043c-.277 0-.326.278-.326.278v.012c.012.085.012.236-.024.278-.012.012-.024.012-.048 0-.145-.079-.103-.23-.103-.236l.03-.096-.229.175v.018c0 .175.079.278.133.326.054.049.109.067.12.073l.019-.012h.006Zm-.174-.26-.018-.067v-.06l.06-.048c0 .06.018.169.139.23a.135.135 0 0 0 .06.017.097.097 0 0 0 .067-.03c.066-.072.048-.284.042-.326 0-.036.06-.223.266-.223h.036s.042.012.054.03c.048.06.055.193.048.284v.036s-.06.048-.084.048v-.054c0-.157 0-.248-.079-.248h-.036c-.084.037-.12.26-.12.405 0 .157-.11.193-.2.193h-.03s-.133-.036-.187-.193l-.018.006ZM6.202 17.209a.157.157 0 0 0-.097-.055h-.042c-.26 0-.32.242-.326.278v.012c.012.085.012.236-.024.278-.013.012-.025.012-.049 0-.145-.078-.102-.23-.102-.235l.03-.09-.23.168v.018c.012.32.23.393.26.399h.042c.163 0 .26-.097.26-.254 0-.193.048-.332.078-.344h.012s.019.145.019.187c0 .036 0 .067.018.085a.066.066 0 0 0 .06.036c.06 0 .12-.06.133-.073v-.018s.036-.265-.054-.38v-.012h.012Zm0 .362s-.06.048-.085.048c0 0-.012-.018-.012-.054 0-.15 0-.247-.078-.247H5.99c-.096.036-.12.277-.12.404 0 .073-.025.127-.073.157a.26.26 0 0 1-.127.03h-.03s-.024 0-.054-.024c-.012 0-.03-.018-.043-.036a.39.39 0 0 1-.108-.266l.06-.048c0 .06.018.17.139.23a.136.136 0 0 0 .06.018.097.097 0 0 0 .067-.03c.066-.073.042-.278.042-.32a.264.264 0 0 1 .266-.218h.036s.042.012.054.03c.055.067.055.236.043.32v.006ZM5.012 13.115s-.012.042-.012.06a.175.175 0 0 0 .35 0c0-.018 0-.036-.012-.06a.18.18 0 0 0 .175-.175.18.18 0 0 0-.175-.175.177.177 0 0 0-.163.108.175.175 0 1 0-.17.242h.007Zm.332-.29c.067 0 .115.048.115.115a.115.115 0 0 1-.115.115c-.018 0-.036 0-.054-.013 0 0-.012-.012-.024-.012-.024-.024-.043-.054-.043-.084 0-.067.049-.115.115-.115l.006-.006Zm-.163.236c.06 0 .115.048.115.114a.111.111 0 0 1-.115.115.111.111 0 0 1-.115-.115c0-.066.049-.115.115-.115Zm-.157-.236c.067 0 .115.048.115.115 0 .03-.012.054-.03.078-.018 0-.03.018-.043.03h-.042a.119.119 0 0 1-.115-.114c0-.06.049-.115.115-.115v.006ZM5.695 16.653a.175.175 0 0 0-.338.066c0 .097.078.176.169.182 0 .018-.013.042-.013.06a.175.175 0 0 0 .35 0c0-.018 0-.036-.011-.06a.177.177 0 0 0 .175-.181.171.171 0 0 0-.175-.175.177.177 0 0 0-.163.108h.006Zm-.163.188a.119.119 0 0 1-.115-.115c0-.06.048-.115.115-.115.066 0 .114.048.114.115 0 .03-.012.054-.03.078-.018 0-.036.019-.048.03h-.036v.007Zm.163.235a.115.115 0 0 1-.115-.115c0-.066.048-.114.115-.114.066 0 .114.054.114.114 0 .06-.054.115-.114.115Zm.283-.35a.111.111 0 0 1-.114.115c-.018 0-.03 0-.049-.013-.012-.012-.024-.018-.036-.024a.127.127 0 0 1-.03-.078c0-.06.054-.115.115-.115.06 0 .114.048.114.115ZM5.446 14.05c.073 0 .145-.03.224-.096.072-.06.109-.127.109-.205V13.598s0-.012-.013-.018v-.012s-.012-.018-.018-.03c-.048-.073-.108-.127-.12-.14l-.019-.017-.694.585.115.145.265-.163c.03.043.103.109.206.109h-.036l-.019-.006Zm-.507-.078.604-.513c.048.048.157.17.157.29 0 .06-.03.115-.084.157a.293.293 0 0 1-.182.079c-.096 0-.15-.079-.169-.103l-.018-.03-.272.169-.042-.055h.006v.006Z" fill="#fff"/>
  <path d="M5.465 13.864h.03s.036-.019.043-.043c.03-.06-.013-.163-.013-.175l-.012-.036-.187.127.012.024s.055.103.127.103Zm.012-.158c.012.037.012.067 0 .085h-.012c-.024 0-.042-.024-.054-.042l.072-.049-.006.007ZM5.525 16.092a.503.503 0 0 0 .332-.133c.14-.127.14-.266.121-.338-.018-.085-.072-.17-.12-.187h-.019a.332.332 0 0 0-.15-.03.505.505 0 0 0-.357.169.367.367 0 0 0-.115.362l-.127.296.236.048.09-.2s.06.013.11.013Zm-.145-.09-.096.21-.11-.023.11-.248v-.012s-.06-.163.09-.308a.45.45 0 0 1 .314-.151c.054 0 .103.012.133.024h.018s.067.067.079.145a.307.307 0 0 1-.103.278.436.436 0 0 1-.26.115h-.03c-.066 0-.115-.018-.115-.018L5.38 16Z" fill="#fff"/>
  <path d="M5.749 15.844c.048-.066.066-.12.048-.175-.03-.09-.151-.115-.151-.115a.292.292 0 0 0-.236.127.185.185 0 0 0-.012.157c0 .018.018.037.018.037v.012s.073.06.145.06c.067 0 .127-.036.182-.103h.012-.006Zm-.29-.127a.225.225 0 0 1 .18-.102h.013c.03.012.078.03.09.072v.024s-.018.055-.042.091a.17.17 0 0 1-.096.072h-.037a.162.162 0 0 1-.102-.042c0-.012-.037-.072 0-.12l-.006.005ZM16.232 17.221l-.037-.042-.936.954.049.042.924-.948v-.006ZM17.27 16.334l-.706.706.048.048.695-.712-.037-.043ZM17.693 15.639l-.537.556h-.006l.042.042.55-.556-.049-.042ZM15.966 17.74l.049.043.32-.357-.049-.042-.32.356ZM12.524 15.572l-.103.03s-.048-.048-.072-.066l-.036-.036v-.012h.012s.018-.018.018-.03v-.085s0-.03-.024-.03h-.073s-.036.018-.042.042l-.085.018s-.018.012-.024.025l-.018.072v.018s.012.012.018.012l.079.018c.042.049.09.097.133.145v.103s0 .024.024.03l.09.012s.024-.012.03-.018c0 0 .03-.03.049-.042l.012-.012s.036-.03.036-.055v-.102s-.012-.03-.024-.03v-.007ZM14.891 13.302l-.06-.018s-.018 0-.024.012a.446.446 0 0 0-.042.072h-.019l-.084-.09s0-.043.012-.067V13.2s0-.024-.012-.024l-.139-.054h-.03l-.055.054s-.012.018 0 .024c.019.066.03.115.049.157 0 0 .012.012.024.012h.054s.055.054.085.079v.108s.012.013.018.013h.097l.114-.11s.018-.017.018-.023v-.091s0-.024-.018-.024l.024-.018h-.012ZM13.931 12.124h-.079l-.03-.048s-.012-.012-.024-.012h-.018l-.09.079v.066s0 .036.018.042l.048.024h.036s.036 0 .06-.012c.013 0 .019-.012.025-.018.024-.03.042-.06.066-.084v-.025s-.012-.012-.018-.012h.012-.006ZM11.316 14.558s0 .012.012.012h.013l.03.024-.024.139v.018s.012.012.018.012l.06-.018c.024 0 .03-.018.042-.036l.018-.036.067-.03s.012-.013.012-.019V14.6s-.036-.036-.06-.054c-.012-.012-.03-.024-.049-.037v-.078s-.012-.012-.018-.012h-.018l-.103.097s-.012.018 0 .03v.018-.012.006ZM12.572 16.189s-.03.054-.018.078c.012.018.03.024.054.024h.025s.018 0 .024-.012c0 0 .012-.06-.018-.084 0 0-.024-.025-.043-.025h-.018v.018h-.006ZM15.646 13.157l-.012.012.042.079s.054-.055.072-.085v-.012h-.06s-.024 0-.036.012l-.006-.006ZM15.61 13.133s.048-.072.048-.109c0 0-.036 0-.054.013-.012 0-.024.018-.03.03 0 0 .024.042.036.06v.006ZM14.583 16.454l-.241-.272.054-.048-.133-.187h-.127v-.042h-.078v.12h.163l.066.097-.138.115.048.06.139-.109-.055.049.23.265v.012h-.024a.095.095 0 0 0-.097.097c0 .054.042.097.097.097h.018s0 .018-.012.024c-.012.012-.024.018-.049.024 0-.054-.048-.09-.102-.09a.093.093 0 0 0-.09.06c-.134-.175-.164-.175-.182-.175h-.054s.024-.018.036-.03l-.048-.06a1.013 1.013 0 0 1-.181.126.266.266 0 0 0-.085-.12l-.012-.013-.242.024v.073l.212-.018c.024.03.054.072.054.096a.05.05 0 0 0 .024.042h.018s.067-.018.127-.06c.048 0 .109.018.133.018.024.018.115.12.175.205l.012.013h.048s.03.012.043.012c.024 0 .042 0 .06-.019.067-.012.109-.03.14-.06.084-.078.041-.278.035-.302l.018-.024Zm-.217.302h-.024v-.012s0-.018.018-.018.018 0 .018.018v.012h-.012Zm.12-.139s-.023-.012-.023-.024.012-.024.024-.024.024.012.024.024-.012.024-.024.024Z" fill="#fff"/>
  <path d="M14.789.5H5.272L0 5.76v9.553L5.2 20.5h9.661L20 15.373V5.705L14.783.5h.006Zm2.614 15.115-.187.187v-.012c-.072-.109-.15-.248-.15-.29.017-.018.011-.036.011-.042 0-.006-.012-.03-.042-.03-.024 0-.109.024-.175.042a.333.333 0 0 0-.048-.121l-.018-.024-.019-.018s-.012 0-.018-.012h-.024s-.048.012-.066.036h-.012c-.067 0-.212-.139-.296-.236.012-.084.048-.368-.018-.453a.097.097 0 0 0-.067-.03c-.078 0-.187-.018-.247-.03l.054-.115-.079-.187.055-.06-.024-.024c.048-.115.108-.254.108-.302a.041.041 0 0 0-.042-.043c-.084 0-.49.387-.507.586v.043c-.024.187-.043.32.072.386a.144.144 0 0 0 .073.018c.09 0 .211-.054.283-.085.013 0 .03-.012.037-.018.042.043.102.127.042.23 0 .012-.012.024-.024.036-.03 0-.133-.024-.242-.024-.114 0-.205.024-.253.072a1.269 1.269 0 0 0-.206.266c-.06.09-.12.187-.211.308-.115.151-.193.175-.23.175h-.036l-.096-.193-.145.12-.163-.174-.127.199-.278-.018-.072-.206-.097.32-.284.218-.012.266-.338.012.12.139-.011.139.096.011.012.2.163-.067v.242h.164l.072-.054.012.283.06-.054s.17-.163.218-.266c.018.03.036.067.066.085.03.024.067.036.109.036h.066l.055-.066s.012.054.024.072c.024.067.187.157.241.187l.03.019.073-.103.242.211v.35l-.073.018s-.024.013-.018.03v.11l-.163.024s-.024.012-.024.024v.12h-.103s-.024 0-.03.025l-.018.138h-.139s-.03 0-.03.019v.138l-.145-.03s-.03.012-.03.024v.218c-.03.042-.09.12-.151.193l-1.83-1.83 4.203-4.172 1.812 1.811a1.59 1.59 0 0 1-.121.097l-.043.024-.072-.012s-.018 0-.024.012c-.012.012-.018.024-.03.036l-.019.018-.09-.018h-.048s-.03 0-.03.018v.194h-.097s-.024.012-.024.024v.145h-.17s-.03 0-.03.024v.157c-.042 0-.084-.012-.126-.018 0 0-.025.012-.025.024v.03l-.036.272v.012l.03-.024v-.012Zm-.55.447c0 .036.037.054.061.054l-.06.06h-.018l-.133.133a2.668 2.668 0 0 0-.127.133s-.054-.066-.085-.175c-.024-.097.043-.151.043-.151l.012-.012.012-.236h.042c.073 0 .127 0 .175-.018.03 0 .06-.012.085-.024a.409.409 0 0 1 .103-.024s-.019.042-.03.06c-.03.055-.073.127-.061.206l-.012-.012-.006.006Zm.128-.17c.024-.042.048-.084.042-.12 0-.018-.018-.055-.079-.055-.036 0-.078.012-.12.024-.025 0-.055.013-.079.019-.042.012-.097.012-.157.012h-.024l-.018-.067a.627.627 0 0 1-.17.03.336.336 0 0 1-.138-.03c-.06-.03-.079-.084-.085-.096v-.012l-.066.018s0 .048-.072.127c-.025.03-.06.042-.103.042-.073 0-.145-.036-.151-.036l-.048-.025-.043.308-.193-.223.024.127s.03.175-.048.284a.13.13 0 0 1-.115.06c-.042 0-.072-.012-.072-.012l-.03.066s.048.025.102.025a.21.21 0 0 0 .175-.091.385.385 0 0 0 .067-.23l.145.17.048-.363a.441.441 0 0 0 .139.024c.066 0 .12-.024.163-.066.03-.03.048-.06.066-.09a.189.189 0 0 0 .067.054c.048.03.108.042.175.042h.097l-.013.248s-.084.102-.054.217c.024.085.06.15.078.175-.09.109-.18.211-.229.248 0-.079.048-.17.054-.17l.025-.241-.091-.103-.012-.15-.097-.146-.06.037s.024.072-.139.271c-.115.14-.17.182-.187.194l-.042-.03v.458l.18.043.013.12.072.019-.326.326c-.012-.073 0-.127 0-.145.036-.049.073-.085.073-.085l.036-.036-.399-.242-.096.175c-.055.037-.085.043-.103.043h-.012s-.024-.073-.03-.109c0-.024 0-.048-.012-.066 0-.025-.024-.037-.043-.049h-.024c-.072 0-.175.073-.205.097l.048.06a.437.437 0 0 1 .151-.084v.054c0 .06.012.14.073.17.012 0 .03.011.042.011.024 0 .054 0 .09-.024 0 .097-.011.224.025.29.036.067.06.181.066.23l-.157.144v-.41l-.332-.284-.085.115c-.09-.055-.169-.109-.175-.133-.018-.048-.03-.133-.03-.133l-.012-.09-.15.18h-.025s-.048 0-.066-.018a.27.27 0 0 1-.049-.066c-.024-.036-.036-.066-.072-.066-.043 0-.049.042-.055.06-.012.054-.114.163-.15.2l-.013-.266-.169.12h-.06v-.277l-.17.066v-.157l-.084-.012v-.103l-.036-.042h.254l.012-.302.271-.211.037-.127.012.036.368.03.097-.157.145.157.127-.102.042.09c-.067.06-.212.206-.194.308.019.073.06.121.103.145a.567.567 0 0 0 0 .326l.073-.018c-.049-.193 0-.308 0-.308l.018-.036-.043-.018s-.072-.03-.084-.109c-.012-.042.079-.15.169-.235.018 0 .036.012.06.012.091 0 .188-.067.29-.206.097-.12.163-.23.218-.314.072-.108.127-.193.187-.247.036-.03.109-.049.205-.049.079 0 .157.013.2.019v.024l.011.018h.019s.036-.012.09-.109c.097-.163-.03-.302-.072-.338l-.012-.012h-.012s-.03 0-.079.024a.773.773 0 0 1-.254.079h-.036c-.066-.037-.06-.133-.042-.314v-.043c.012-.078.097-.193.17-.271.084-.097.174-.182.228-.224-.012.042-.042.109-.072.187l-.157.157.085.085.042-.042v.012l-.163.175.084.084.121-.12-.042.096-.018-.012-.097.103.09.078.085-.096c.06.012.175.036.26.036.036.042.03.223 0 .368l-.066.2.247.313.03-.024a.956.956 0 0 1 .17-.139s.042-.012.054-.03l.012-.012s.054.079.072.17v.042l.048-.012c.055-.019.11-.03.146-.043.012.06.06.157.138.29-.084.103-.169.193-.211.218a.25.25 0 0 1 .054-.14h.024l.025-.011Zm-.816.84s.019.042.03.048l-.156.157-.09-.018-.013-.12-.175-.043v-.302c.048-.024.12-.096.217-.217a.643.643 0 0 0 .14-.23l.023.042.012.157.085.097-.018.187a.443.443 0 0 0-.054.242Zm-.591.676v.036l-.163.17s-.037-.188-.079-.278c-.03-.06-.018-.236 0-.32l.054-.103.254.157-.048.06c-.055.06-.018.23 0 .278h-.018Zm.742-2.234c.055.06.157.169.248.211-.036.024-.073.06-.097.079l-.175-.224.024-.072v.006ZM5.441 19.19l-.984-7.343.9-.888.217.217.93 6.963-1.063 1.045v.006ZM3.06 8.67v3.563L2.036 13.26V7.638l1.027 1.026v.006Zm.35.35 1.432 1.432-1.431 1.43V9.022Zm10.303-.114-3.152-3.152 3.484-3.485-.314 6.63h-.018v.007Zm-1.98-5.344H8.356L7.331 2.535h5.429l-1.027 1.027Zm-.351.35-1.34 1.34-1.341-1.34h2.68Zm2.85 6.546-4.19 4.19-4.192-4.19 4.191-4.191 4.191 4.19Zm3.575-5.918-.085.078-.26-.253.019-.163.332.332h-.006v.006Zm-.302 1.999c.012.157.054.29.12.404 0 .012.013.024.019.03v.013s0 .012.012.018v.012l-.833.833c-.012-.284-.03-.815-.043-1.135V6.61c0-.278.2-.682.32-.906l.345-.036.211.278a.782.782 0 0 0-.17.592h.019Zm-.386-1.075-.157-.218.247-.271-.169-.182-.23.248-.084-.115.35-.308.085.055.26.277.06.091-.356.429h-.006v-.006Zm-.188-.278-.066-.103.175-.193.079.085-.194.211h.006Zm.52-.308-.236-.254.224-.193.241.236-.23.211Zm-.06-.495-.23.2-.079-.055-.386.338-.29-.399V4.33l.054-1.16.973.972-.03.236-.013.006ZM16.31 6.388v.072s0 .024.013.03v.018l.018.049c.06.102.072.205.042.35l.066.012a.582.582 0 0 0-.048-.398c-.054-.097-.054-.26-.054-.26h-.055l.06-1.721.756 1.032c-.067.115-.393.67-.387 1.033 0 .314.036 1.027.048 1.304l-.55.55.05-1.256.03-.815h.011Zm.278 2.73v2.674l-1.34-1.34 1.34-1.34v.005Zm-.392 3.562v.012h-.024l-.091-.036v.024c.012.06.018.12.024.181v.018h-.018c-.006 0-.018 0-.018-.018v-.024c-.012-.072-.018-.151-.03-.223v-.019h.012c.024.012.048.018.066.03l.024.013v-.151h.012s.019 0 .019.012l.09.175v.018s-.012.012-.018.012c0 0-.012 0-.018-.012-.012-.03-.03-.054-.042-.085v-.012.085h.012Zm-1.981 1.528-.513-.514 1.89-1.884.507.508-1.884 1.89Zm1.165-.985h-.012s-.042.049-.054.079l.012.018s.018.03.024.048v.012l.067.121v.018s-.012.012-.018.012c0 0-.012 0-.019-.012l-.084-.157s0-.012-.012-.018c0-.012-.018-.03-.018-.042 0-.018.012-.042.018-.06.018-.043.042-.067.066-.067.043 0 .073.042.085.079a.107.107 0 0 1-.018.096l.096.037s.012.012.012.024-.012.018-.018.018l-.145-.049v-.012s0-.024.018-.024c0 0 .018 0 .025-.018.006-.018.012-.024 0-.036 0-.024-.018-.048-.037-.06h.006l.006-.007Zm-.253.278s.012.049.018.067l.03-.018h.012s.018 0 .024.018v.018l-.048.03.024.085s.043-.049.067-.079v-.012h.024s.018 0 .024.006v.018l-.103.12h-.018c-.012 0-.018 0-.018-.017l-.072-.254v-.018l.06-.048h.012c.012 0 .018 0 .018.018v.024s-.036.03-.054.042Zm.398-.422v-.025s.037-.048.06-.06c.019 0 .043-.018.067-.018.024 0 .036 0 .042.024.012.024 0 .06-.018.097h.049c.042 0 .06.012.06.036 0 .036-.03.072-.054.097l-.06.06h-.013s-.018 0-.018-.012l-.048-.079-.073-.127.006.007Zm.224-.14v-.018s.012-.012.018-.012c0 0 .012 0 .018.012 0 .013.054.097.097.097.012 0 .018 0 .024-.012a.068.068 0 0 0 .018-.048c0-.055-.048-.109-.066-.121v-.018s.012-.012.024-.012h.012c.036.036.078.102.072.163 0 .03-.018.054-.042.072a.066.066 0 0 1-.042.018c-.055 0-.11-.066-.14-.12h.007Zm-.761.629v-.018h.018c.006 0 .018 0 .018.018.012.108.018.217.03.32v.018h-.024c-.048-.03-.102-.06-.15-.09 0 0-.013-.013 0-.019 0-.012.011-.018.023-.018h.012l.115.072-.024-.277h-.012l-.006-.006Zm-.332.585s-.024-.012-.036-.012h-.067s-.042 0-.066-.012c-.012 0-.024-.018-.024-.03v-.036s0-.012.012-.018a.216.216 0 0 1 .15-.067c.013 0 .019 0 .019.018s0 .024-.024.024a.18.18 0 0 0-.085.03c-.012 0-.024.019-.036.03v.013h.114c.043 0 .067.012.079.036.024.055-.03.121-.06.157a.486.486 0 0 1-.097.097h-.012s-.018 0-.018-.012v-.024c.048-.043.078-.079.108-.115 0 0 .037-.048.037-.073v-.018.012h.006Zm-.224.127c0 .079-.012.163-.018.242 0 0-.012.018-.018.018h-.012a.654.654 0 0 0-.09-.048v.163h-.013s-.024 0-.024-.025v-.187s.012-.018.018-.018h.012l.097.054v-.018c0-.066.012-.133.018-.193 0-.012.012-.018.018-.018h.018v.018h-.006v.012Zm-1.087 1.25v.012h-.024l-.09-.036c0 .072.018.145.024.211v.018h-.018c-.006 0-.018 0-.018-.018v-.03c-.012-.072-.025-.145-.03-.223v-.018h.011l.091.036v-.151h.012s.018 0 .018.012l.09.181v.018s-.011.012-.017.012c0 0-.012 0-.018-.012l-.018-.036s-.019-.036-.025-.054v-.012.09h.012Zm-1.443.972-.507-.507L13.2 14.19l.513.513-1.812 1.793v.006Zm1.027-.7c0 .085-.012.163-.018.247 0 .013-.012.019-.018.019h-.013l-.054-.03-.042-.025v.17h-.012s-.024 0-.024-.025v-.187s.012-.018.018-.018h.012c.03.018.06.036.096.054 0-.066.012-.133.018-.193v-.012s.013-.018.025-.018h.018v.018h-.006Zm-.224.44s0 .05-.018.067a.115.115 0 0 1-.078.03.131.131 0 0 1-.085-.03c-.024-.024-.036-.078 0-.139.02-.028.02-.028 0 0a.064.064 0 0 1 .055-.03c.018 0 .042 0 .06.024.03.024.048.055.054.085h.006l.006-.006Zm-5.99 1.692-.87-6.474 3.696 3.696-2.826 2.778Zm3.327-2.271 1.431 1.431H8.611l1.431-1.431Zm2.331-2.319.35.363-1.805 1.805-.356-.356 1.811-1.812Zm-.133 3.074v.284s-.012.018-.018.018c-.012 0-.024 0-.024-.024v-.308s.012-.018.024-.018l.145.054v-.157s.012-.018.018-.018c.012 0 .024 0 .024.024v.199h-.018l-.145-.054h-.006Zm1.142-1.238v-.018l.066-.049h.012s.018 0 .018.019v.018l-.054.042.024.079.03-.025h.012s.018 0 .024.018v.019c-.018.012-.03.024-.048.03l.024.084.079-.09h.018c.006 0 .018 0 .018.012v.018l-.103.12h-.018c-.012 0-.018 0-.018-.017-.024-.085-.048-.17-.078-.254l-.006-.006Zm.217-.109h-.012c-.012 0-.012 0-.018-.012v-.024l.066-.066s0-.012.012-.012l.067-.073h.012c.012 0 .012 0 .018.012v.024l-.06.06.102.152v.024s-.012.012-.018.012h-.012c-.024-.03-.042-.06-.06-.09l-.037-.055-.054.054-.006-.006Zm.17-.193v-.018s.011-.012.017-.012c0 0 .012 0 .018.012 0 .012.055.097.097.097.012 0 .018 0 .024-.013a.068.068 0 0 0 .018-.048c0-.048-.048-.109-.066-.12v-.019s.012-.012.024-.012h.012c.036.036.079.103.072.163 0 .03-.018.055-.042.073a.065.065 0 0 1-.042.018c-.054 0-.109-.067-.139-.121h.006Zm.198-.266v-.018l.067-.054h.012s.018 0 .018.018v.024l-.054.042.024.073s.018-.018.03-.024h.012s.018 0 .024.018v.018l-.048.03.024.09.024-.03s.037-.042.055-.06h.018c.006 0 .018 0 .024.012v.018c-.036.043-.073.079-.103.121h-.018c-.012 0-.018 0-.018-.018l-.072-.254h-.013l-.006-.006Zm-.754-1.4-.375-.339 1.902-1.908.363.362-1.89 1.884ZM8.26 17.443h3.563l1.026 1.027H7.234l1.027-1.027Zm8.677-5.301V8.767l1.027-1.027v5.435l-1.027-1.026v-.006Zm.785-5.176V6.46a.76.76 0 0 1 .103-.386c.024-.037.048-.055.048-.055l.024-.018v-.024l.025-.018-.272-.356-.332.03s.024-.036.024-.042l.012-.019-.042-.054.398-.477-.072-.115.368-.338 1.123 1.123-1.256 1.256h-.151ZM14.79 1.521l1.346 1.346V4.33l-.211 4.432-1.178 1.177-.773-.773V9.13l.333-7.113h-.012l.495-.495Zm-.719-.302-.96.96H6.98l-.96-.96h8.056-.006Zm-8.762.302 4.233 4.233-4.19 4.19-4.234-4.233 4.191-4.19ZM.718 6.333l.96.96v6.323l-.96.96V6.333Zm3.521 5.719.96 7.222-.06-.06c0 .06.012.114.012.175v.03L.984 15.252l3.255-3.2Zm1.691 7.73.96-.96h6.317l.96.96H5.924h.006Zm11.377-2.911h-.14s-.023 0-.023.018l-.012.024-.085.012s-.018 0-.018.018 0 .037-.012.055l-.06-.013s-.019 0-.025.019c0 .018-.018.036-.024.054l-.018.042-.145.024s-.018 0-.018.013v.138h-.054s-.024.012-.03.024c0 .03 0 .067-.013.097h-.072s-.03 0-.03.024v.079s0 .018.012.024c0 0 .048.03.072.042l-1.817 1.818-.544-.544.38-.398c.03-.03.061-.067.091-.097l2.253-2.252s.018-.012.024-.018c.012 0 .018-.018.03-.025.054-.048.115-.114.157-.169l.26-.26.187-.186c.09-.091.181-.182.265-.272.14-.14.357-.356.526-.52l.556.556-1.673 1.673Zm1.974-2.385-.96-.96V7.39l.96-.96v8.056Z" fill="#fff"/>
</svg>